<?xml version="1.0" encoding="utf-8"?>
<svg version="1.1" id="Layer_1" x="0px" y="0px" width="100%" viewBox="0 0 512 512" enable-background="new 0 0 512 512" xmlns="http://www.w3.org/2000/svg">
  <path fill="#000000" opacity="1.000000" stroke="none" d=" M1.000000,184.000000 C1.000000,122.666664 1.000000,61.833332 1.000000,1.000000 C171.666672,1.000000 342.333344,1.000000 513.000000,1.000000 C513.000000,171.666672 513.000000,342.333344 513.000000,513.000000 C342.333344,513.000000 171.666672,513.000000 1.000000,513.000000 C1.000000,403.500000 1.000000,294.000000 1.000000,184.000000 M472.547913,424.998322 C485.531219,426.750793 498.213531,414.014130 497.161835,400.367340 C496.318604,389.425812 490.948792,380.356354 480.710205,377.913086 C468.557495,375.013062 459.652649,377.017273 453.117950,387.329376 C450.073547,392.133545 446.864288,393.536835 441.834259,393.033691 C439.854248,392.835632 437.815857,392.810974 435.842468,393.039368 C431.291382,393.566162 428.055634,391.721680 424.885010,388.504150 C407.690796,371.055176 390.120972,353.973145 373.087341,336.371033 C367.926697,331.038177 362.684967,328.393982 355.161926,328.856903 C345.532745,329.449371 335.837158,328.879547 326.174500,329.051758 C322.245575,329.121796 320.780670,327.590424 320.958466,323.742279 C321.158203,319.418640 321.206329,315.066132 320.943787,310.749115 C320.680878,306.426544 322.300781,304.887268 326.683990,304.927216 C345.680664,305.100250 364.682068,304.858704 383.675659,305.157257 C386.468781,305.201202 389.834869,306.691040 391.898041,308.621216 C400.168915,316.358887 408.114136,324.452911 416.001892,332.587616 C418.999054,335.678619 422.259216,337.207886 426.606934,337.055206 C432.931732,336.833069 439.289673,336.728271 445.591919,337.168457 C447.607483,337.309235 450.230072,338.868195 451.316772,340.577942 C459.111755,352.841583 468.191467,354.556854 480.025482,352.350464 C488.492065,350.771881 497.964386,340.861511 497.135498,328.350220 C496.434937,317.776642 491.232239,309.399872 481.682770,306.072784 C471.454193,302.509094 459.329590,305.215393 453.999115,314.122772 C450.178314,320.507416 445.618591,321.674316 439.320221,321.023865 C437.836182,320.870605 436.308105,320.865356 434.825867,321.026764 C431.008423,321.442505 428.227386,319.915833 425.593811,317.188019 C418.071167,309.396118 410.189331,301.949249 402.722839,294.105743 C399.241364,290.448486 395.482788,288.863770 390.396057,288.914185 C369.400024,289.122284 348.399078,288.857422 327.403870,289.102783 C322.280487,289.162659 320.507751,287.454010 320.931702,282.468109 C321.269379,278.497070 321.185028,274.463959 320.952301,270.477966 C320.712128,266.364014 322.329742,264.930145 326.454163,264.940979 C365.950256,265.044708 405.446808,265.019196 444.943115,264.970062 C448.026520,264.966217 449.951202,265.770721 451.709778,268.734253 C458.825256,280.725525 468.156219,282.925781 480.336548,280.206482 C490.979309,277.830475 497.025940,268.542572 496.998230,256.519379 C496.972778,245.477524 491.020935,236.453659 480.843781,233.949402 C468.683990,230.957321 459.501770,233.114029 452.888580,243.610077 C450.125122,247.996124 447.208282,249.101151 442.476593,249.082870 C404.647278,248.936600 366.817169,249.001297 328.987305,249.000458 C327.820770,249.000427 326.650940,248.930969 325.488373,248.996017 C322.327545,249.172867 320.911255,247.755875 320.990051,244.557602 C321.092651,240.394028 320.991760,236.225754 321.002106,232.059540 C321.019592,225.033356 321.027405,225.008240 327.869232,225.003906 C348.867310,224.990616 369.866180,224.902054 390.862854,225.071930 C395.569122,225.109985 399.125916,223.679810 402.336853,220.261902 C407.811249,214.434647 414.186707,209.366348 419.113464,203.133331 C425.924591,194.516296 434.210602,191.526520 444.804321,192.882065 C448.043701,193.296570 450.139923,193.903870 451.876221,197.041336 C458.890594,209.716248 473.201172,212.194687 484.340759,206.634323 C496.676636,200.476822 500.116272,188.068008 495.227051,174.970734 C492.277466,167.069397 485.858307,162.106598 477.122498,161.073425 C466.664825,159.836609 457.745361,162.752197 452.381714,172.280060 C450.193115,176.167938 447.688232,177.239807 443.628510,177.064957 C437.806580,176.814224 431.913147,176.535767 426.152954,177.183029 C422.804535,177.559326 418.969788,178.977264 416.542816,181.215637 C407.974487,189.118103 399.988708,197.648697 391.607086,205.760300 C390.056824,207.260574 387.703705,208.809021 385.704163,208.831665 C365.542084,209.059937 345.376404,208.957138 325.211823,208.997070 C322.268463,209.002899 320.961273,207.721909 321.002747,204.781845 C321.068573,200.116699 321.207916,195.438370 320.942566,190.786942 C320.698029,186.499817 322.206055,184.828354 326.647095,184.924698 C337.474304,185.159592 348.312897,184.855164 359.141083,185.066254 C363.671997,185.154587 367.022491,183.608231 370.176361,180.416443 C386.457794,163.939392 403.346741,148.034149 419.069855,131.046539 C426.478119,123.042496 434.241547,119.547928 444.824219,120.881165 C448.076202,121.290863 450.154144,121.933640 451.885773,125.058876 C458.904968,137.726974 473.240723,140.190659 484.359253,134.626312 C496.684357,128.458145 500.121643,116.038475 495.217896,102.952797 C492.260681,95.061356 485.854950,90.091728 477.108246,89.069397 C466.646637,87.846626 457.731445,90.762863 452.374420,100.292740 C450.183502,104.190201 447.663757,105.245827 443.613739,105.062637 C438.125519,104.814407 432.606964,105.212868 427.121277,104.937866 C422.399017,104.701141 418.937103,106.424934 415.650513,109.748367 C397.253174,128.351730 378.777344,146.879974 360.087585,165.188187 C357.983307,167.249527 354.444000,168.527435 351.433777,168.835251 C345.826233,169.408661 340.118286,169.001099 334.452148,169.001190 C320.998444,169.001404 320.967712,169.001160 321.008148,155.524597 C321.042969,143.908096 319.870483,144.651703 331.396942,145.150299 C338.717743,145.466980 343.847717,142.994904 348.892975,137.812866 C367.724457,118.470894 386.968903,99.530975 406.059052,80.440834 C415.486267,71.013611 424.883972,61.556576 434.354675,52.173233 C439.790619,46.787468 448.253571,47.774723 452.366180,53.929901 C459.717560,64.932510 468.452972,66.766678 480.209778,64.244431 C490.711243,61.991501 496.990479,52.657028 496.998291,41.153103 C497.006165,29.496906 490.964417,20.260571 480.494385,17.846954 C468.535431,15.090100 459.517120,17.083979 452.651031,27.893894 C450.148956,31.833099 447.589905,33.580353 443.105347,33.044960 C440.969330,32.789951 438.753235,33.210686 436.615906,32.961136 C430.789673,32.280872 426.625092,34.690701 422.563019,38.791630 C394.299347,67.325684 365.835114,95.661095 337.434448,124.059471 C336.491730,125.002106 335.670654,126.528755 334.571289,126.768990 C330.683380,127.618576 326.689209,128.372589 322.760895,128.261200 C322.108063,128.242691 321.439667,123.745193 321.037872,121.275261 C320.613434,118.665817 320.884094,115.898338 320.181976,113.386940 C317.380341,103.364891 308.740723,97.724716 298.252747,96.846352 C283.700195,95.627571 271.449188,108.507912 272.892303,121.820557 C273.535065,127.750092 272.847992,133.812607 273.047852,139.805313 C273.178314,143.717285 271.626190,145.113998 267.762848,145.050415 C257.766479,144.885864 247.764145,144.898132 237.767319,145.047958 C234.195282,145.101486 232.583527,143.754959 231.432404,140.287735 C222.577408,113.616257 192.436493,105.463890 170.654388,119.455231 C167.443024,121.518005 165.499664,121.280876 162.824677,119.220375 C141.077255,102.468536 119.332115,85.712616 97.443909,69.146042 C94.454781,66.883659 94.197662,64.884109 95.215340,61.559662 C104.235222,32.094276 81.754768,8.529912 57.011490,8.679296 C33.410881,8.821782 11.670326,29.283001 17.683189,58.208225 C23.395212,85.686249 54.903175,98.080856 79.235626,82.619865 C82.687546,80.426491 84.667229,80.842606 87.466202,82.999054 C108.948135,99.549637 130.457733,116.064949 152.055191,132.464188 C154.927017,134.644775 156.230164,136.538208 154.884369,140.333603 C153.573517,144.030365 151.476044,145.083237 147.826920,145.052216 C132.662750,144.923294 117.495445,144.886490 102.332481,145.073746 C98.332993,145.123123 96.499146,143.751526 95.261871,139.886322 C89.858063,123.005119 73.230026,112.664238 56.344341,112.730774 C33.230801,112.821846 11.569202,133.437210 17.735214,162.368988 C23.639334,190.071930 55.508232,202.169937 79.840500,186.317139 C82.092850,184.849747 83.669685,184.166428 85.973465,185.952347 C93.204597,191.557922 100.536171,197.033844 107.822327,202.568558 C109.920189,204.162125 109.957199,205.806854 107.840820,207.415268 C100.555862,212.951767 93.354614,218.607788 85.882271,223.879181 C84.631126,224.761810 81.803757,224.638779 80.364952,223.820099 C73.010574,219.635391 65.518364,217.091919 56.788498,216.824844 C33.254227,216.104904 11.527833,237.494659 17.749931,266.429138 C23.705677,294.124969 55.566242,306.191467 79.868408,290.251190 C82.503319,288.522888 84.190163,288.531830 86.437157,290.262085 C93.423607,295.641785 100.435150,300.989380 107.474876,306.299133 C109.677917,307.960785 110.241570,309.593414 107.794228,311.452911 C100.508789,316.988495 93.305420,322.641602 85.829742,327.907837 C84.588417,328.782257 81.671158,328.664062 80.326599,327.784424 C70.275124,321.208527 59.300064,319.290527 47.798183,321.674438 C29.285706,325.511322 17.587162,341.193054 16.833740,360.068634 C16.130268,377.692841 27.296413,392.668335 40.374779,397.915710 C63.017796,407.000610 87.574043,397.451660 95.654091,373.138184 C96.598763,370.295593 97.898941,368.980286 100.881699,368.990753 C117.046570,369.047424 133.212082,369.080383 149.376541,368.981689 C153.156601,368.958588 153.972260,371.451111 154.954269,374.224152 C155.892059,376.872284 155.775665,378.728149 153.187027,380.632751 C145.282700,386.448303 137.641129,392.619568 129.848679,398.588928 C115.451523,409.617859 101.020409,420.602478 86.601898,431.603485 C84.481133,433.221588 82.768532,433.775421 80.012581,431.910370 C73.166748,427.277557 65.588432,425.130341 57.037907,424.821381 C33.792305,423.981354 12.114805,444.645813 17.511774,473.718658 C20.874805,491.834991 38.135151,505.429138 57.575115,505.282410 C80.515297,505.109314 102.082710,485.010162 96.246346,456.742126 C94.681084,449.160828 95.304604,444.917419 101.882713,441.537079 C102.454567,441.243195 102.844810,440.615967 103.372398,440.212982 C123.339470,424.961578 143.322174,409.730621 163.272690,394.457611 C165.655472,392.633545 167.477570,392.378448 170.267990,394.325989 C179.938324,401.075348 190.948959,402.740234 202.252090,400.292633 C217.151276,397.066284 226.733475,387.434021 231.632462,373.179596 C232.594467,370.380463 233.822784,368.970825 236.834824,368.990967 C247.499924,369.062225 258.165955,369.052948 268.831268,369.003204 C271.807159,368.989349 273.042114,370.352814 272.997986,373.261261 C272.932251,377.593048 272.975769,381.926849 273.006104,386.259583 C273.085052,397.544159 281.768433,407.722198 292.310150,408.909760 C306.346466,410.490997 317.623840,403.592072 320.578796,391.616425 C322.295471,384.659241 322.649780,384.164917 329.710876,385.181549 C332.068848,385.521057 334.573853,387.208435 336.336304,388.959412 C362.936737,415.386566 389.734222,441.628387 415.760773,468.612671 C424.196503,477.358887 432.584564,483.372711 445.141449,481.011200 C445.462585,480.950775 445.876129,480.890472 446.128510,481.035553 C447.845398,482.022675 450.215698,482.655029 451.113892,484.156433 C456.603973,493.333313 464.270721,497.755127 475.140167,497.074615 C484.893402,496.463959 491.739899,491.556702 495.214661,483.014648 C498.744629,474.336761 498.229980,465.507324 492.079224,457.536804 C482.184174,444.714264 459.225189,445.764587 451.238556,461.754333 C450.636444,462.959808 449.356873,464.552338 448.260803,464.662933 C442.855377,465.208405 437.826233,465.633209 433.150299,460.873962 C406.872406,434.127808 379.996033,407.967163 353.866211,381.079651 C345.874542,372.856232 338.037537,366.518402 325.879303,368.987885 C325.720001,369.020264 325.546204,368.973175 325.380524,368.983795 C322.138733,369.192322 320.922729,367.566071 320.986938,364.450409 C321.086487,359.619659 321.138000,354.780670 320.965118,349.953918 C320.833832,346.288849 322.337738,344.897217 325.977509,344.960358 C334.307526,345.104858 342.646759,345.169952 350.972290,344.926880 C354.986511,344.809692 357.834839,346.215210 360.615173,349.023163 C379.024109,367.615143 397.611420,386.030518 416.029114,404.613922 C419.062134,407.674225 422.303680,409.220490 426.644257,409.053192 C432.468353,408.828674 438.311676,409.130096 444.139008,408.951935 C447.784454,408.840454 450.092957,409.767151 452.112122,413.309296 C456.297394,420.651215 462.674591,425.204865 472.547913,424.998322 z"/>
  <path opacity="1.000000" stroke="none" d=" M472.091858,424.997803 C462.674591,425.204865 456.297394,420.651215 452.112122,413.309296 C450.092957,409.767151 447.784454,408.840454 444.139008,408.951935 C438.311676,409.130096 432.468353,408.828674 426.644257,409.053192 C422.303680,409.220490 419.062134,407.674225 416.029114,404.613922 C397.611420,386.030518 379.024109,367.615143 360.615173,349.023163 C357.834839,346.215210 354.986511,344.809692 350.972290,344.926880 C342.646759,345.169952 334.307526,345.104858 325.977509,344.960358 C322.337738,344.897217 320.833832,346.288849 320.965118,349.953918 C321.138000,354.780670 321.086487,359.619659 320.986938,364.450409 C320.922729,367.566071 322.138733,369.192322 325.380524,368.983795 C325.546204,368.973175 325.720001,369.020264 325.879303,368.987885 C338.037537,366.518402 345.874542,372.856232 353.866211,381.079651 C379.996033,407.967163 406.872406,434.127808 433.150299,460.873962 C437.826233,465.633209 442.855377,465.208405 448.260803,464.662933 C449.356873,464.552338 450.636444,462.959808 451.238556,461.754333 C459.225189,445.764587 482.184174,444.714264 492.079224,457.536804 C498.229980,465.507324 498.744629,474.336761 495.214661,483.014648 C491.739899,491.556702 484.893402,496.463959 475.140167,497.074615 C464.270721,497.755127 456.603973,493.333313 451.113892,484.156433 C450.215698,482.655029 447.845398,482.022675 446.128510,481.035553 C445.876129,480.890472 445.462585,480.950775 445.141449,481.011200 C432.584564,483.372711 424.196503,477.358887 415.760773,468.612671 C389.734222,441.628387 362.936737,415.386566 336.336304,388.959412 C334.573853,387.208435 332.068848,385.521057 329.710876,385.181549 C322.649780,384.164917 322.295471,384.659241 320.578796,391.616425 C317.623840,403.592072 306.346466,410.490997 292.310150,408.909760 C281.768433,407.722198 273.085052,397.544159 273.006104,386.259583 C272.975769,381.926849 272.932251,377.593048 272.997986,373.261261 C273.042114,370.352814 271.807159,368.989349 268.831268,369.003204 C258.165955,369.052948 247.499924,369.062225 236.834824,368.990967 C233.822784,368.970825 232.594467,370.380463 231.632462,373.179596 C226.733475,387.434021 217.151276,397.066284 202.252090,400.292633 C190.948959,402.740234 179.938324,401.075348 170.267990,394.325989 C167.477570,392.378448 165.655472,392.633545 163.272690,394.457611 C143.322174,409.730621 123.339470,424.961578 103.372398,440.212982 C102.844810,440.615967 102.454567,441.243195 101.882713,441.537079 C95.304604,444.917419 94.681084,449.160828 96.246346,456.742126 C102.082710,485.010162 80.515297,505.109314 57.575115,505.282410 C38.135151,505.429138 20.874805,491.834991 17.511774,473.718658 C12.114805,444.645813 33.792305,423.981354 57.037907,424.821381 C65.588432,425.130341 73.166748,427.277557 80.012581,431.910370 C82.768532,433.775421 84.481133,433.221588 86.601898,431.603485 C101.020409,420.602478 115.451523,409.617859 129.848679,398.588928 C137.641129,392.619568 145.282700,386.448303 153.187027,380.632751 C155.775665,378.728149 155.892059,376.872284 154.954269,374.224152 C153.972260,371.451111 153.156601,368.958588 149.376541,368.981689 C133.212082,369.080383 117.046570,369.047424 100.881699,368.990753 C97.898941,368.980286 96.598763,370.295593 95.654091,373.138184 C87.574043,397.451660 63.017796,407.000610 40.374779,397.915710 C27.296413,392.668335 16.130268,377.692841 16.833740,360.068634 C17.587162,341.193054 29.285706,325.511322 47.798183,321.674438 C59.300064,319.290527 70.275124,321.208527 80.326599,327.784424 C81.671158,328.664062 84.588417,328.782257 85.829742,327.907837 C93.305420,322.641602 100.508789,316.988495 107.794228,311.452911 C110.241570,309.593414 109.677917,307.960785 107.474876,306.299133 C100.435150,300.989380 93.423607,295.641785 86.437157,290.262085 C84.190163,288.531830 82.503319,288.522888 79.868408,290.251190 C55.566242,306.191467 23.705677,294.124969 17.749931,266.429138 C11.527833,237.494659 33.254227,216.104904 56.788498,216.824844 C65.518364,217.091919 73.010574,219.635391 80.364952,223.820099 C81.803757,224.638779 84.631126,224.761810 85.882271,223.879181 C93.354614,218.607788 100.555862,212.951767 107.840820,207.415268 C109.957199,205.806854 109.920189,204.162125 107.822327,202.568558 C100.536171,197.033844 93.204597,191.557922 85.973465,185.952347 C83.669685,184.166428 82.092850,184.849747 79.840500,186.317139 C55.508232,202.169937 23.639334,190.071930 17.735214,162.368988 C11.569202,133.437210 33.230801,112.821846 56.344341,112.730774 C73.230026,112.664238 89.858063,123.005119 95.261871,139.886322 C96.499146,143.751526 98.332993,145.123123 102.332481,145.073746 C117.495445,144.886490 132.662750,144.923294 147.826920,145.052216 C151.476044,145.083237 153.573517,144.030365 154.884369,140.333603 C156.230164,136.538208 154.927017,134.644775 152.055191,132.464188 C130.457733,116.064949 108.948135,99.549637 87.466202,82.999054 C84.667229,80.842606 82.687546,80.426491 79.235626,82.619865 C54.903175,98.080856 23.395212,85.686249 17.683189,58.208225 C11.670326,29.283001 33.410881,8.821782 57.011490,8.679296 C81.754768,8.529912 104.235222,32.094276 95.215340,61.559662 C94.197662,64.884109 94.454781,66.883659 97.443909,69.146042 C119.332115,85.712616 141.077255,102.468536 162.824677,119.220375 C165.499664,121.280876 167.443024,121.518005 170.654388,119.455231 C192.436493,105.463890 222.577408,113.616257 231.432404,140.287735 C232.583527,143.754959 234.195282,145.101486 237.767319,145.047958 C247.764145,144.898132 257.766479,144.885864 267.762848,145.050415 C271.626190,145.113998 273.178314,143.717285 273.047852,139.805313 C272.847992,133.812607 273.535065,127.750092 272.892303,121.820557 C271.449188,108.507912 283.700195,95.627571 298.252747,96.846352 C308.740723,97.724716 317.380341,103.364891 320.181976,113.386940 C320.884094,115.898338 320.613434,118.665817 321.037872,121.275261 C321.439667,123.745193 322.108063,128.242691 322.760895,128.261200 C326.689209,128.372589 330.683380,127.618576 334.571289,126.768990 C335.670654,126.528755 336.491730,125.002106 337.434448,124.059471 C365.835114,95.661095 394.299347,67.325684 422.563019,38.791630 C426.625092,34.690701 430.789673,32.280872 436.615906,32.961136 C438.753235,33.210686 440.969330,32.789951 443.105347,33.044960 C447.589905,33.580353 450.148956,31.833099 452.651031,27.893894 C459.517120,17.083979 468.535431,15.090100 480.494385,17.846954 C490.964417,20.260571 497.006165,29.496906 496.998291,41.153103 C496.990479,52.657028 490.711243,61.991501 480.209778,64.244431 C468.452972,66.766678 459.717560,64.932510 452.366180,53.929901 C448.253571,47.774723 439.790619,46.787468 434.354675,52.173233 C424.883972,61.556576 415.486267,71.013611 406.059052,80.440834 C386.968903,99.530975 367.724457,118.470894 348.892975,137.812866 C343.847717,142.994904 338.717743,145.466980 331.396942,145.150299 C319.870483,144.651703 321.042969,143.908096 321.008148,155.524597 C320.967712,169.001160 320.998444,169.001404 334.452148,169.001190 C340.118286,169.001099 345.826233,169.408661 351.433777,168.835251 C354.444000,168.527435 357.983307,167.249527 360.087585,165.188187 C378.777344,146.879974 397.253174,128.351730 415.650513,109.748367 C418.937103,106.424934 422.399017,104.701141 427.121277,104.937866 C432.606964,105.212868 438.125519,104.814407 443.613739,105.062637 C447.663757,105.245827 450.183502,104.190201 452.374420,100.292740 C457.731445,90.762863 466.646637,87.846626 477.108246,89.069397 C485.854950,90.091728 492.260681,95.061356 495.217896,102.952797 C500.121643,116.038475 496.684357,128.458145 484.359253,134.626312 C473.240723,140.190659 458.904968,137.726974 451.885773,125.058876 C450.154144,121.933640 448.076202,121.290863 444.824219,120.881165 C434.241547,119.547928 426.478119,123.042496 419.069855,131.046539 C403.346741,148.034149 386.457794,163.939392 370.176361,180.416443 C367.022491,183.608231 363.671997,185.154587 359.141083,185.066254 C348.312897,184.855164 337.474304,185.159592 326.647095,184.924698 C322.206055,184.828354 320.698029,186.499817 320.942566,190.786942 C321.207916,195.438370 321.068573,200.116699 321.002747,204.781845 C320.961273,207.721909 322.268463,209.002899 325.211823,208.997070 C345.376404,208.957138 365.542084,209.059937 385.704163,208.831665 C387.703705,208.809021 390.056824,207.260574 391.607086,205.760300 C399.988708,197.648697 407.974487,189.118103 416.542816,181.215637 C418.969788,178.977264 422.804535,177.559326 426.152954,177.183029 C431.913147,176.535767 437.806580,176.814224 443.628510,177.064957 C447.688232,177.239807 450.193115,176.167938 452.381714,172.280060 C457.745361,162.752197 466.664825,159.836609 477.122498,161.073425 C485.858307,162.106598 492.277466,167.069397 495.227051,174.970734 C500.116272,188.068008 496.676636,200.476822 484.340759,206.634323 C473.201172,212.194687 458.890594,209.716248 451.876221,197.041336 C450.139923,193.903870 448.043701,193.296570 444.804321,192.882065 C434.210602,191.526520 425.924591,194.516296 419.113464,203.133331 C414.186707,209.366348 407.811249,214.434647 402.336853,220.261902 C399.125916,223.679810 395.569122,225.109985 390.862854,225.071930 C369.866180,224.902054 348.867310,224.990616 327.869232,225.003906 C321.027405,225.008240 321.019592,225.033356 321.002106,232.059540 C320.991760,236.225754 321.092651,240.394028 320.990051,244.557602 C320.911255,247.755875 322.327545,249.172867 325.488373,248.996017 C326.650940,248.930969 327.820770,249.000427 328.987305,249.000458 C366.817169,249.001297 404.647278,248.936600 442.476593,249.082870 C447.208282,249.101151 450.125122,247.996124 452.888580,243.610077 C459.501770,233.114029 468.683990,230.957321 480.843781,233.949402 C491.020935,236.453659 496.972778,245.477524 496.998230,256.519379 C497.025940,268.542572 490.979309,277.830475 480.336548,280.206482 C468.156219,282.925781 458.825256,280.725525 451.709778,268.734253 C449.951202,265.770721 448.026520,264.966217 444.943115,264.970062 C405.446808,265.019196 365.950256,265.044708 326.454163,264.940979 C322.329742,264.930145 320.712128,266.364014 320.952301,270.477966 C321.185028,274.463959 321.269379,278.497070 320.931702,282.468109 C320.507751,287.454010 322.280487,289.162659 327.403870,289.102783 C348.399078,288.857422 369.400024,289.122284 390.396057,288.914185 C395.482788,288.863770 399.241364,290.448486 402.722839,294.105743 C410.189331,301.949249 418.071167,309.396118 425.593811,317.188019 C428.227386,319.915833 431.008423,321.442505 434.825867,321.026764 C436.308105,320.865356 437.836182,320.870605 439.320221,321.023865 C445.618591,321.674316 450.178314,320.507416 453.999115,314.122772 C459.329590,305.215393 471.454193,302.509094 481.682770,306.072784 C491.232239,309.399872 496.434937,317.776642 497.135498,328.350220 C497.964386,340.861511 488.492065,350.771881 480.025482,352.350464 C468.191467,354.556854 459.111755,352.841583 451.316772,340.577942 C450.230072,338.868195 447.607483,337.309235 445.591919,337.168457 C439.289673,336.728271 432.931732,336.833069 426.606934,337.055206 C422.259216,337.207886 418.999054,335.678619 416.001892,332.587616 C408.114136,324.452911 400.168915,316.358887 391.898041,308.621216 C389.834869,306.691040 386.468781,305.201202 383.675659,305.157257 C364.682068,304.858704 345.680664,305.100250 326.683990,304.927216 C322.300781,304.887268 320.680878,306.426544 320.943787,310.749115 C321.206329,315.066132 321.158203,319.418640 320.958466,323.742279 C320.780670,327.590424 322.245575,329.121796 326.174500,329.051758 C335.837158,328.879547 345.532745,329.449371 355.161926,328.856903 C362.684967,328.393982 367.926697,331.038177 373.087341,336.371033 C390.120972,353.973145 407.690796,371.055176 424.885010,388.504150 C428.055634,391.721680 431.291382,393.566162 435.842468,393.039368 C437.815857,392.810974 439.854248,392.835632 441.834259,393.033691 C446.864288,393.536835 450.073547,392.133545 453.117950,387.329376 C459.652649,377.017273 468.557495,375.013062 480.710205,377.913086 C490.948792,380.356354 496.318604,389.425812 497.161835,400.367340 C498.213531,414.014130 485.531219,426.750793 472.091858,424.997803 M218.278473,225.169968 C224.806198,230.243454 229.159180,236.897842 231.557556,244.682037 C232.615646,248.116165 234.433807,249.064896 237.682709,249.031891 C247.680328,248.930344 257.681244,248.893478 267.677490,249.048141 C271.452789,249.106552 273.068207,247.884201 273.051117,243.892685 C272.939728,217.896637 272.952026,191.899750 273.038940,165.903519 C273.051300,162.200287 271.568115,160.914185 267.973938,160.960648 C257.810333,161.092056 247.642883,161.090408 237.479233,160.961166 C234.088242,160.918045 232.551605,162.240402 231.495911,165.510544 C228.941254,173.423843 224.300049,179.988052 217.690826,185.227509 C204.849915,195.407150 183.929672,196.054382 169.450089,186.010178 C168.310349,185.219543 165.774139,184.980957 164.757706,185.706207 C157.041672,191.211761 149.479462,196.942474 142.074768,202.860092 C141.339005,203.448074 141.339310,206.551941 142.075317,207.140121 C149.479889,213.057800 157.041992,218.788559 164.757980,224.294159 C165.774338,225.019363 168.239319,224.743240 169.461395,223.995728 C185.742096,214.037445 201.772293,213.857468 218.278473,225.169968 M273.001221,297.500000 C272.998657,288.341034 272.904510,279.180756 273.039246,270.023804 C273.092102,266.432587 271.803619,264.909485 268.099762,264.959747 C257.943542,265.097565 247.783493,265.075409 237.626587,264.966309 C234.343750,264.931061 232.592087,265.971405 231.543915,269.366180 C229.087265,277.322662 224.407852,283.900757 217.825195,289.123199 C204.668808,299.560944 184.028839,299.918610 169.598831,290.163605 C168.295074,289.282227 165.351227,289.246887 164.096497,290.132538 C156.630646,295.402405 149.434631,301.054871 142.155273,306.588440 C140.038315,308.197693 140.084930,309.841583 142.178360,311.432037 C149.459244,316.963623 156.655838,322.615417 164.123642,327.882446 C165.373367,328.763916 168.296600,328.697632 169.629639,327.823517 C191.948074,313.188049 222.840881,321.555878 231.562805,348.648651 C232.653076,352.035370 234.374680,353.068604 237.645172,353.033173 C247.469040,352.926697 257.300446,352.802124 267.117432,353.084015 C271.805450,353.218689 273.129120,351.425110 273.075684,346.958221 C272.882507,330.807495 273.000610,314.653046 273.001221,297.500000 M305.000366,246.500000 C305.000366,206.006012 305.001495,165.512039 304.996368,125.018059 C304.996155,123.352722 305.158905,121.646774 304.862732,120.029900 C304.075226,115.730522 301.422485,113.104568 297.000488,113.106087 C292.584198,113.107605 289.932556,115.719727 289.129974,120.023010 C288.858826,121.476936 289.003601,123.013428 289.003510,124.512184 C288.999207,210.166214 288.999207,295.820251 289.003448,381.474274 C289.003540,382.973053 288.857819,384.509521 289.128601,385.963501 C289.929810,390.265991 292.581512,392.886353 296.994598,392.887848 C301.407684,392.889343 304.075653,390.271973 304.862976,385.968475 C305.158813,384.351501 304.996185,382.645630 304.996368,380.980286 C305.001373,336.486847 305.000366,291.993439 305.000366,246.500000 M42.498600,68.058090 C52.647308,74.763550 63.516388,74.609596 72.038757,67.639679 C80.290764,60.890892 83.153519,50.029579 79.265343,40.222004 C75.583328,30.934456 66.691345,24.921085 56.763412,25.004662 C47.065956,25.086298 38.336243,31.103622 34.733032,40.190048 C30.844000,49.997227 33.361118,59.601753 42.498600,68.058090 M80.844955,468.034912 C80.894531,466.870514 81.040001,465.701050 80.978607,464.542542 C80.456604,454.693024 75.841072,447.326813 66.900772,443.233826 C57.730961,439.035706 48.877686,440.367706 41.293758,447.014709 C33.899090,453.495819 31.377453,461.811249 33.951420,471.412445 C36.757290,481.878693 46.470940,489.119110 57.305119,488.994873 C68.778458,488.863373 77.464638,481.399506 80.844955,468.034912 M184.380127,383.326019 C194.750610,386.999969 203.712448,384.668823 211.055420,376.642426 C217.545258,369.548584 218.788040,359.253204 214.599472,350.601715 C210.049271,341.203278 199.607162,335.627014 189.531845,337.215271 C179.174774,338.847961 171.096130,346.808228 169.266388,357.183777 C167.410889,367.705292 172.911011,377.599731 184.380127,383.326019 M43.069889,380.505981 C53.357334,386.801117 63.850876,386.435944 72.212944,379.491913 C80.259918,372.809509 83.085182,362.141693 79.368881,352.472229 C75.789322,343.158569 66.919868,337.016724 57.032089,337.004669 C47.134506,336.992584 38.226807,343.120544 34.650520,352.401794 C30.788561,362.424408 33.570240,372.224884 43.069889,380.505981 M214.780853,246.920151 C208.719345,236.114975 198.631805,231.100662 187.947662,233.581879 C177.179153,236.082687 169.505127,245.093094 169.027832,255.796509 C168.594360,265.517395 174.076309,274.619202 182.845947,278.739014 C191.500275,282.804657 201.732666,281.297546 208.885696,274.903625 C216.591858,268.015289 218.799454,258.259247 214.780853,246.920151 M33.282269,260.884277 C33.524933,261.853363 33.728878,262.834045 34.016102,263.789734 C37.870888,276.615875 51.293812,283.817657 64.068916,279.924194 C76.551941,276.119751 83.693031,262.739227 79.969795,250.130142 C76.606682,238.740646 64.775368,231.270691 53.249210,233.259506 C40.436192,235.470367 32.520443,246.015350 33.282269,260.884277 M34.663654,144.375153 C31.103104,154.349548 33.070919,163.223938 40.698139,170.423935 C47.853283,177.178268 56.415146,178.818069 65.704155,175.263550 C75.718025,171.431625 81.917473,161.309937 80.916061,150.736282 C79.903976,140.050018 71.702591,131.255447 60.914032,129.287613 C50.369583,127.364288 40.385361,132.881607 34.663654,144.375153 M169.722595,158.523010 C173.271042,170.876068 183.984238,178.385193 195.882309,176.858932 C207.553665,175.361755 216.628265,165.449310 216.982315,153.810822 C217.411285,139.709320 205.624878,128.240417 191.523224,129.037567 C177.152542,129.849930 167.360901,142.589188 169.722595,158.523010 M155.293854,239.315857 C146.397781,232.343948 137.453339,225.432388 128.634430,218.364212 C125.909836,216.180496 123.713898,216.491837 121.130936,218.538055 C113.439796,224.630981 105.741867,230.725372 97.833885,236.529373 C94.820396,238.741104 93.931366,240.765228 95.161644,244.448318 C96.436424,248.264618 98.725822,249.074219 102.295341,249.046158 C116.787735,248.932251 131.281555,249.004944 145.774857,248.999222 C153.849396,248.996033 154.353622,248.523422 155.293854,239.315857 M139.546661,183.039383 C144.158844,179.487564 148.959473,176.144501 153.267548,172.255783 C154.547897,171.100082 155.044388,168.344894 154.833374,166.440796 C154.523148,163.641327 153.417068,160.980377 149.575623,160.998535 C133.249313,161.075668 116.922089,161.084183 100.596016,160.984024 C96.807953,160.960785 96.026680,163.489899 95.038429,166.247955 C94.085548,168.907349 94.263062,170.745728 96.830688,172.646530 C105.116989,178.780807 113.225639,185.159912 121.291748,191.584045 C123.978264,193.723679 126.215179,193.672256 128.795685,191.511093 C132.109344,188.735916 135.591171,186.161514 139.546661,183.039383 M153.567123,351.244507 C156.511673,343.808136 156.468628,343.864777 150.206802,339.104980 C143.194290,333.774597 136.171478,328.448761 129.351562,322.878052 C126.210266,320.312134 123.762756,320.354553 120.630173,322.893585 C113.272026,328.857605 105.731003,334.600067 98.168976,340.306274 C95.473984,342.339844 93.586929,344.072327 95.021889,348.067444 C96.403191,351.913177 98.492920,353.106079 102.380844,353.064575 C117.530289,352.902863 132.682678,353.034485 147.833374,352.948761 C149.579575,352.938904 151.321976,352.251495 153.567123,351.244507 M97.588104,265.609863 C92.972580,272.175964 93.239754,273.936432 99.265617,278.529602 C106.401901,283.969238 113.532478,289.419495 120.549446,295.010834 C123.333939,297.229614 125.689186,298.059448 128.856552,295.502838 C136.872940,289.032135 145.022537,282.719513 153.275208,276.552917 C155.598404,274.816956 156.025452,273.121429 155.053909,270.601501 C154.044556,267.983490 153.653976,264.993652 149.776291,265.021912 C132.638199,265.146851 115.499641,265.208435 97.588104,265.609863 M465.016327,185.393997 C465.416687,189.325317 467.564270,192.297668 471.358154,192.629211 C473.815674,192.843964 477.491394,191.826355 478.727539,190.046082 C480.221954,187.893738 480.865753,183.767807 479.752258,181.575623 C478.632599,179.371277 474.955902,177.411316 472.303833,177.279999 C468.026489,177.068207 465.542114,180.247238 465.016327,185.393997 M477.107056,322.155823 C471.414246,320.079559 466.943909,321.789612 465.373505,326.644226 C464.047791,330.742462 466.351868,335.249512 470.588318,336.573700 C474.404785,337.766632 477.604462,336.529907 479.667114,333.245270 C482.157959,329.278748 481.234711,325.636902 477.107056,322.155823 M480.923370,255.818634 C478.722717,250.186829 474.918488,247.871292 470.454468,249.446411 C466.643127,250.791245 464.240356,254.720093 465.168549,258.511230 C466.145386,262.501160 468.776917,264.825867 472.959290,264.959015 C477.369659,265.099396 480.097473,262.164795 480.923370,255.818634 M472.605011,393.011230 C468.678192,393.416443 465.697998,395.554169 465.366577,399.351532 C465.152039,401.810059 466.165802,405.485382 467.945374,406.723145 C470.096008,408.219025 474.221649,408.865723 476.413757,407.753632 C478.619110,406.634766 480.582275,402.959259 480.714569,400.307434 C480.927948,396.031616 477.749634,393.544189 472.605011,393.011230 M479.841614,108.895119 C477.613190,105.702637 474.626068,104.281662 470.792816,105.342445 C466.558807,106.514130 464.091553,111.045380 465.293671,115.141335 C466.523682,119.332535 470.997925,121.886765 475.074493,120.724998 C479.808502,119.375854 481.699127,115.247795 479.841614,108.895119 M480.166321,37.614185 C478.057922,33.749149 474.854279,32.183678 470.600220,33.426201 C466.560059,34.606258 464.206146,38.924057 465.203369,42.869003 C466.263641,47.063389 470.700470,49.807354 474.800110,48.804127 C479.321747,47.697632 481.357605,43.950035 480.166321,37.614185 M479.841614,468.895081 C477.613190,465.702667 474.626099,464.281677 470.792847,465.342468 C466.558807,466.514160 464.092072,471.044556 465.293762,475.141479 C466.522980,479.332245 470.997955,481.886810 475.074554,480.724945 C479.808533,479.375793 481.699158,475.247650 479.841614,468.895081 z" style="fill: rgb(133, 120, 231);"/>
  <path opacity="1.000000" stroke="none" d=" M217.970551,224.983978 C201.772293,213.857468 185.742096,214.037445 169.461395,223.995728 C168.239319,224.743240 165.774338,225.019363 164.757980,224.294159 C157.041992,218.788559 149.479889,213.057800 142.075317,207.140121 C141.339310,206.551941 141.339005,203.448074 142.074768,202.860092 C149.479462,196.942474 157.041672,191.211761 164.757706,185.706207 C165.774139,184.980957 168.310349,185.219543 169.450089,186.010178 C183.929672,196.054382 204.849915,195.407150 217.690826,185.227509 C224.300049,179.988052 228.941254,173.423843 231.495911,165.510544 C232.551605,162.240402 234.088242,160.918045 237.479233,160.961166 C247.642883,161.090408 257.810333,161.092056 267.973938,160.960648 C271.568115,160.914185 273.051300,162.200287 273.038940,165.903519 C272.952026,191.899750 272.939728,217.896637 273.051117,243.892685 C273.068207,247.884201 271.452789,249.106552 267.677490,249.048141 C257.681244,248.893478 247.680328,248.930344 237.682709,249.031891 C234.433807,249.064896 232.615646,248.116165 231.557556,244.682037 C229.159180,236.897842 224.806198,230.243454 217.970551,224.983978 M247.593170,185.000626 C243.280136,184.533676 240.787003,185.539261 240.892609,190.808624 C241.096252,200.971054 243.935715,203.370422 254.159744,200.841415 C255.026764,200.626938 256.422760,199.883438 256.444214,199.341034 C256.613190,195.071014 257.032806,190.672882 256.123016,186.593475 C255.890320,185.550110 251.184769,185.504272 247.593170,185.000626 M256.375885,218.266037 C252.010040,217.919312 247.646378,217.433167 243.276215,217.365097 C242.560226,217.353928 241.278305,219.134949 241.184631,220.171387 C240.901398,223.305313 240.745316,226.532013 241.228912,229.614426 C241.425674,230.868530 243.277145,232.621002 244.581955,232.824509 C255.999802,234.605240 257.237701,233.447540 256.983459,222.050644 C256.961304,221.057236 256.818787,220.066528 256.375885,218.266037 z" fill="#000000"/>
  <path opacity="1.000000" stroke="none" d=" M273.001221,298.000000 C273.000610,314.653046 272.882507,330.807495 273.075684,346.958221 C273.129120,351.425110 271.805450,353.218689 267.117432,353.084015 C257.300446,352.802124 247.469040,352.926697 237.645172,353.033173 C234.374680,353.068604 232.653076,352.035370 231.562805,348.648651 C222.840881,321.555878 191.948074,313.188049 169.629639,327.823517 C168.296600,328.697632 165.373367,328.763916 164.123642,327.882446 C156.655838,322.615417 149.459244,316.963623 142.178360,311.432037 C140.084930,309.841583 140.038315,308.197693 142.155273,306.588440 C149.434631,301.054871 156.630646,295.402405 164.096497,290.132538 C165.351227,289.246887 168.295074,289.282227 169.598831,290.163605 C184.028839,299.918610 204.668808,299.560944 217.825195,289.123199 C224.407852,283.900757 229.087265,277.322662 231.543915,269.366180 C232.592087,265.971405 234.343750,264.931061 237.626587,264.966309 C247.783493,265.075409 257.943542,265.097565 268.099762,264.959747 C271.803619,264.909485 273.092102,266.432587 273.039246,270.023804 C272.904510,279.180756 272.998657,288.341034 273.001221,298.000000 M241.266846,294.931213 C243.516190,296.854431 253.814865,297.929199 255.723022,296.329010 C256.294464,295.849823 256.797668,294.942657 256.820801,294.215271 C256.931763,290.729919 257.134796,287.205322 256.702637,283.770447 C256.572601,282.736542 254.590424,281.321869 253.308289,281.142517 C241.688644,279.516998 240.860428,280.317535 241.011871,292.063171 C241.020447,292.727814 241.070282,293.391968 241.266846,294.931213 M243.939941,328.900787 C246.932816,328.924896 249.926178,328.923187 252.918396,328.980927 C255.546860,329.031616 256.984833,327.925171 256.973145,325.162537 C256.914917,311.402679 258.648773,313.028931 244.778885,313.089569 C243.729370,313.094177 242.380554,313.560974 241.695145,314.299469 C240.007507,316.117828 241.145569,326.480988 243.939941,328.900787 z" fill="#000000"/>
  <path fill="#F82F45" opacity="1.000000" stroke="none" d=" M305.000366,247.000000 C305.000366,291.993439 305.001373,336.486847 304.996368,380.980286 C304.996185,382.645630 305.158813,384.351501 304.862976,385.968475 C304.075653,390.271973 301.407684,392.889343 296.994598,392.887848 C292.581512,392.886353 289.929810,390.265991 289.128601,385.963501 C288.857819,384.509521 289.003540,382.973053 289.003448,381.474274 C288.999207,295.820251 288.999207,210.166214 289.003510,124.512184 C289.003601,123.013428 288.858826,121.476936 289.129974,120.023010 C289.932556,115.719727 292.584198,113.107605 297.000488,113.106087 C301.422485,113.104568 304.075226,115.730522 304.862732,120.029900 C305.158905,121.646774 304.996155,123.352722 304.996368,125.018059 C305.001495,165.512039 305.000366,206.006012 305.000366,247.000000 z"/>
  <path fill="#4BBDE3" opacity="1.000000" stroke="none" d=" M42.210613,67.840698 C33.361118,59.601753 30.844000,49.997227 34.733032,40.190048 C38.336243,31.103622 47.065956,25.086298 56.763412,25.004662 C66.691345,24.921085 75.583328,30.934456 79.265343,40.222004 C83.153519,50.029579 80.290764,60.890892 72.038757,67.639679 C63.516388,74.609596 52.647308,74.763550 42.210613,67.840698 z"/>
  <path fill="#4BBCE3" opacity="1.000000" stroke="none" d=" M80.778427,468.458374 C77.464638,481.399506 68.778458,488.863373 57.305119,488.994873 C46.470940,489.119110 36.757290,481.878693 33.951420,471.412445 C31.377453,461.811249 33.899090,453.495819 41.293758,447.014709 C48.877686,440.367706 57.730961,439.035706 66.900772,443.233826 C75.841072,447.326813 80.456604,454.693024 80.978607,464.542542 C81.040001,465.701050 80.894531,466.870514 80.778427,468.458374 z"/>
  <path fill="#FBA12E" opacity="1.000000" stroke="none" d=" M184.013306,383.189453 C172.911011,377.599731 167.410889,367.705292 169.266388,357.183777 C171.096130,346.808228 179.174774,338.847961 189.531845,337.215271 C199.607162,335.627014 210.049271,341.203278 214.599472,350.601715 C218.788040,359.253204 217.545258,369.548584 211.055420,376.642426 C203.712448,384.668823 194.750610,386.999969 184.013306,383.189453 z"/>
  <path fill="#4BBDE3" opacity="1.000000" stroke="none" d=" M42.785255,380.282745 C33.570240,372.224884 30.788561,362.424408 34.650520,352.401794 C38.226807,343.120544 47.134506,336.992584 57.032089,337.004669 C66.919868,337.016724 75.789322,343.158569 79.368881,352.472229 C83.085182,362.141693 80.259918,372.809509 72.212944,379.491913 C63.850876,386.435944 53.357334,386.801117 42.785255,380.282745 z"/>
  <path fill="#FBA12E" opacity="1.000000" stroke="none" d=" M214.917023,247.283783 C218.799454,258.259247 216.591858,268.015289 208.885696,274.903625 C201.732666,281.297546 191.500275,282.804657 182.845947,278.739014 C174.076309,274.619202 168.594360,265.517395 169.027832,255.796509 C169.505127,245.093094 177.179153,236.082687 187.947662,233.581879 C198.631805,231.100662 208.719345,236.114975 214.917023,247.283783 z"/>
  <path fill="#4BBDE3" opacity="1.000000" stroke="none" d=" M33.216797,260.458618 C32.520443,246.015350 40.436192,235.470367 53.249210,233.259506 C64.775368,231.270691 76.606682,238.740646 79.969795,250.130142 C83.693031,262.739227 76.551941,276.119751 64.068916,279.924194 C51.293812,283.817657 37.870888,276.615875 34.016102,263.789734 C33.728878,262.834045 33.524933,261.853363 33.216797,260.458618 z"/>
  <path fill="#4BBDE3" opacity="1.000000" stroke="none" d=" M34.800987,144.008514 C40.385361,132.881607 50.369583,127.364288 60.914032,129.287613 C71.702591,131.255447 79.903976,140.050018 80.916061,150.736282 C81.917473,161.309937 75.718025,171.431625 65.704155,175.263550 C56.415146,178.818069 47.853283,177.178268 40.698139,170.423935 C33.070919,163.223938 31.103104,154.349548 34.800987,144.008514 z"/>
  <path fill="#FBA12E" opacity="1.000000" stroke="none" d=" M169.601868,158.119019 C167.360901,142.589188 177.152542,129.849930 191.523224,129.037567 C205.624878,128.240417 217.411285,139.709320 216.982315,153.810822 C216.628265,165.449310 207.553665,175.361755 195.882309,176.858932 C183.984238,178.385193 173.271042,170.876068 169.601868,158.119019 z"/>
  <path fill="#000000" opacity="1.000000" stroke="none" d=" M155.435120,239.647797 C154.353622,248.523422 153.849396,248.996033 145.774857,248.999222 C131.281555,249.004944 116.787735,248.932251 102.295341,249.046158 C98.725822,249.074219 96.436424,248.264618 95.161644,244.448318 C93.931366,240.765228 94.820396,238.741104 97.833885,236.529373 C105.741867,230.725372 113.439796,224.630981 121.130936,218.538055 C123.713898,216.491837 125.909836,216.180496 128.634430,218.364212 C137.453339,225.432388 146.397781,232.343948 155.435120,239.647797 z"/>
  <path fill="#000000" opacity="1.000000" stroke="none" d=" M139.273605,183.270004 C135.591171,186.161514 132.109344,188.735916 128.795685,191.511093 C126.215179,193.672256 123.978264,193.723679 121.291748,191.584045 C113.225639,185.159912 105.116989,178.780807 96.830688,172.646530 C94.263062,170.745728 94.085548,168.907349 95.038429,166.247955 C96.026680,163.489899 96.807953,160.960785 100.596016,160.984024 C116.922089,161.084183 133.249313,161.075668 149.575623,160.998535 C153.417068,160.980377 154.523148,163.641327 154.833374,166.440796 C155.044388,168.344894 154.547897,171.100082 153.267548,172.255783 C148.959473,176.144501 144.158844,179.487564 139.273605,183.270004 z"/>
  <path fill="#000000" opacity="1.000000" stroke="none" d=" M153.316635,351.561371 C151.321976,352.251495 149.579575,352.938904 147.833374,352.948761 C132.682678,353.034485 117.530289,352.902863 102.380844,353.064575 C98.492920,353.106079 96.403191,351.913177 95.021889,348.067444 C93.586929,344.072327 95.473984,342.339844 98.168976,340.306274 C105.731003,334.600067 113.272026,328.857605 120.630173,322.893585 C123.762756,320.354553 126.210266,320.312134 129.351562,322.878052 C136.171478,328.448761 143.194290,333.774597 150.206802,339.104980 C156.468628,343.864777 156.511673,343.808136 153.316635,351.561371 z"/>
  <path fill="#000000" opacity="1.000000" stroke="none" d=" M97.974686,265.451416 C115.499641,265.208435 132.638199,265.146851 149.776291,265.021912 C153.653976,264.993652 154.044556,267.983490 155.053909,270.601501 C156.025452,273.121429 155.598404,274.816956 153.275208,276.552917 C145.022537,282.719513 136.872940,289.032135 128.856552,295.502838 C125.689186,298.059448 123.333939,297.229614 120.549446,295.010834 C113.532478,289.419495 106.401901,283.969238 99.265617,278.529602 C93.239754,273.936432 92.972580,272.175964 97.974686,265.451416 z"/>
  <path fill="#F29B2E" opacity="1.000000" stroke="none" d=" M465.016296,185.002258 C465.542114,180.247238 468.026489,177.068207 472.303833,177.279999 C474.955902,177.411316 478.632599,179.371277 479.752258,181.575623 C480.865753,183.767807 480.221954,187.893738 478.727539,190.046082 C477.491394,191.826355 473.815674,192.843964 471.358154,192.629211 C467.564270,192.297668 465.416687,189.325317 465.016296,185.002258 z"/>
  <path fill="#F29B2E" opacity="1.000000" stroke="none" d=" M477.425049,322.379456 C481.234711,325.636902 482.157959,329.278748 479.667114,333.245270 C477.604462,336.529907 474.404785,337.766632 470.588318,336.573700 C466.351868,335.249512 464.047791,330.742462 465.373505,326.644226 C466.943909,321.789612 471.414246,320.079559 477.425049,322.379456 z"/>
  <path fill="#F29B2E" opacity="1.000000" stroke="none" d=" M480.952545,256.214844 C480.097473,262.164795 477.369659,265.099396 472.959290,264.959015 C468.776917,264.825867 466.145386,262.501160 465.168549,258.511230 C464.240356,254.720093 466.643127,250.791245 470.454468,249.446411 C474.918488,247.871292 478.722717,250.186829 480.952545,256.214844 z"/>
  <path fill="#F29B2E" opacity="1.000000" stroke="none" d=" M472.996826,393.011230 C477.749634,393.544189 480.927948,396.031616 480.714569,400.307434 C480.582275,402.959259 478.619110,406.634766 476.413757,407.753632 C474.221649,408.865723 470.096008,408.219025 467.945374,406.723145 C466.165802,405.485382 465.152039,401.810059 465.366577,399.351532 C465.697998,395.554169 468.678192,393.416443 472.996826,393.011230 z"/>
  <path fill="#F29B2E" opacity="1.000000" stroke="none" d=" M480.003204,109.252899 C481.699127,115.247795 479.808502,119.375854 475.074493,120.724998 C470.997925,121.886765 466.523682,119.332535 465.293671,115.141335 C464.091553,111.045380 466.558807,106.514130 470.792816,105.342445 C474.626068,104.281662 477.613190,105.702637 480.003204,109.252899 z"/>
  <path fill="#F29B2E" opacity="1.000000" stroke="none" d=" M480.330322,37.968185 C481.357605,43.950035 479.321747,47.697632 474.800110,48.804127 C470.700470,49.807354 466.263641,47.063389 465.203369,42.869003 C464.206146,38.924057 466.560059,34.606258 470.600220,33.426201 C474.854279,32.183678 478.057922,33.749149 480.330322,37.968185 z"/>
  <path fill="#F29B2E" opacity="1.000000" stroke="none" d=" M480.003204,469.252869 C481.699158,475.247650 479.808533,479.375793 475.074554,480.724945 C470.997955,481.886810 466.522980,479.332245 465.293762,475.141479 C464.092072,471.044556 466.558807,466.514160 470.792847,465.342468 C474.626099,464.281677 477.613190,465.702667 480.003204,469.252869 z"/>
  <path opacity="1.000000" stroke="none" d=" M248.063690,185.000381 C251.184769,185.504272 255.890320,185.550110 256.123016,186.593475 C257.032806,190.672882 256.613190,195.071014 256.444214,199.341034 C256.422760,199.883438 255.026764,200.626938 254.159744,200.841415 C243.935715,203.370422 241.096252,200.971054 240.892609,190.808624 C240.787003,185.539261 243.280136,184.533676 248.063690,185.000381 z" style="fill: rgb(133, 120, 231);"/>
  <path opacity="1.000000" stroke="none" d=" M256.554016,218.670303 C256.818787,220.066528 256.961304,221.057236 256.983459,222.050644 C257.237701,233.447540 255.999802,234.605240 244.581955,232.824509 C243.277145,232.621002 241.425674,230.868530 241.228912,229.614426 C240.745316,226.532013 240.901398,223.305313 241.184631,220.171387 C241.278305,219.134949 242.560226,217.353928 243.276215,217.365097 C247.646378,217.433167 252.010040,217.919312 256.554016,218.670303 z" style="fill: rgb(133, 120, 231);"/>
  <path opacity="1.000000" stroke="none" d=" M241.183884,294.493774 C241.070282,293.391968 241.020447,292.727814 241.011871,292.063171 C240.860428,280.317535 241.688644,279.516998 253.308289,281.142517 C254.590424,281.321869 256.572601,282.736542 256.702637,283.770447 C257.134796,287.205322 256.931763,290.729919 256.820801,294.215271 C256.797668,294.942657 256.294464,295.849823 255.723022,296.329010 C253.814865,297.929199 243.516190,296.854431 241.183884,294.493774 z" style="fill: rgb(133, 120, 231);"/>
  <path opacity="1.000000" stroke="none" d=" M243.505249,328.817200 C241.145569,326.480988 240.007507,316.117828 241.695145,314.299469 C242.380554,313.560974 243.729370,313.094177 244.778885,313.089569 C258.648773,313.028931 256.914917,311.402679 256.973145,325.162537 C256.984833,327.925171 255.546860,329.031616 252.918396,328.980927 C249.926178,328.923187 246.932816,328.924896 243.505249,328.817200 z" style="fill: rgb(133, 120, 231);"/>
</svg>