<svg fill="#0079d6" fill-rule="evenodd" xmlns="http://www.w3.org/2000/svg" width="507.875" height="369" viewBox="0 0 507.875 369">
  <path  class="cls-1" d="M308.1,131.682h0.08c6.076,0,12.086.475,17.984,3.234,0.262,0.121.524,0.249,0.785,0.38h0c0.468,0.235.933,0.485,1.4,0.751h0c-20.69.366-27.191,16.877-35.562,31.218l-1.417-.789h0c0.294-2.486.424-5,.9-7.455,1.195-6.175,2.523-12.331,3.856-18.482,1.279-5.855,4.971-8.811,10.96-8.853l0.523,0H308.1M305.858,71c-4.223,0-8.485.247-12.78,0.653-19.364,1.826-37.12,7.461-52.5,19.571-7.046,5.55-13.258,11.932-17.814,20.46,11.044-.564,22.879-1.154,33.237-1.683h1a35.222,35.222,0,0,1-7,3c-11.6,2.862-22.657,5.828-34.447,7.675-9.188,1.44-17.2,4.081-23.5,11.434-15.271,17.828-31.251,35.059-46.119,53.213-7.86,9.593-14.144,20.5-20.828,31.019-3.91,6.152-4.008,12.727.531,18.7,6.706,8.829,13.678,17.453,20.857,26.579,7.45-8.653,15.015-17.435,22.582-26.214l1.151,0.819A31.907,31.907,0,0,1,169,239.76q-10.559,21.793-21.183,43.551c-6.46,13.166-6.012,14.778,6.521,22.751,4.41,2.808,8.835,4.512,13.385,4.512a20.038,20.038,0,0,0,10.466-3.111c6.414-3.858,13.222-7.073,19.649-10.905,12.3-7.342,25.282-11.853,39.577-11.853q1.773,0,3.574.094c0.032,0,.064,0,0.095,0,1.388,0,3.678-1.544,4.048-2.792,4.844-16.347,8.139-32.652,3.665-49.95-4.539-17.548-5.927-35.483.545-53.076,1.384-3.763,3.388-7.3,5.109-10.932l1.561,0.44a43.451,43.451,0,0,1-.039,6.147c-2.212,15.469-.281,30.515,4.483,45.264,3.6,11.143,6.919,22.478,5.463,34.232-1.773,14.317-4.681,28.485-6.994,42.733-0.6,3.674-2.008,5.143-4.724,5.143a13.5,13.5,0,0,1-3.147-.457,60.281,60.281,0,0,0-14.339-1.82,48.558,48.558,0,0,0-25.991,7.436c-8.067,4.972-16.434,9.472-24.782,13.963-6.752,3.635-13.324,5.52-19.688,5.52-8.541,0-16.707-3.395-24.428-10.515-4.037-3.727-8.118-7.422-11.974-11.327-8.875-9.017-8.828-9.067-1.911-19.375l0.536-.847c6.785-10.106,6.746-10.871-1.174-20.45l-0.986-1.13c-5.533-7.481-11.309-14.8-16.5-22.508-4.229-6.281-5.24-13.711-2.31-20.567,3.824-8.935,8.026-17.958,13.645-25.811,7.241-10.119,16.027-19.131,24.183-28.59C148.787,161.519,152.5,156.967,156,153c-16.56,2.284-32.151,7.222-47.039,13.561-15.776,6.717-29.421,16.058-39.907,29.844-6.858,9.009-13.852,17.93-21.227,26.516-4.179,4.865-8.7,9.845-14.056,13.2a14.2,14.2,0,0,1-7.53,2.11c-5.961,0-11.838-3.561-13.106-10.174,2.4-3.114,5.691-5.461,6-8.157,1.018-8.732.936-17.595,1.286-26.4-6.758,3.649-14.463,11.36-17.041,17.624-2.06,5-2.384,9.867,1.65,14.453,1.363,1.55,1.913,4.129,2.136,6.315,1.375,13.371,7.652,20.445,20.384,21.823a21.934,21.934,0,0,0,2.339.119c3.255,0,6.6-.6,10.016-0.831a23.609,23.609,0,0,1,.156,2.807c-0.672,8.945-1.686,17.871-2,26.821-0.469,13.4,1.363,26.42,6.495,39,8.357,20.49,16.631,33.921,27.048,50.575,1.108,1.776,2.475,4.076,2.16,5.849-1.644,9.441-3.055,19.034-5.939,28.131-3.941,12.426-1.607,20.115,10.683,24.061a151.618,151.618,0,0,0,29.614,5.941,40.192,40.192,0,0,0,4.333.262c8.8,0,12.045-4.025,12.936-14.331,0.411-4.7.663-10.129,3.153-13.834,11.381-16.962,10.783-24.92,9.731-46.35-0.1-1.989-.493-3.955-0.607-5.938-0.1-1.817-.024-3.64-0.024-5.957,3.974,4.963,6.837,9.8,10.854,13.337A40.627,40.627,0,0,0,176.28,373.73,60.766,60.766,0,0,0,190.186,372c8.93-2.1,15.734-7.014,18.66-16.242a10.513,10.513,0,0,1,1.712-2.352,10.52,10.52,0,0,1,.533,2c0.058,5.664-.021,11.328.134,16.991,0.134,4.882-1.932,8.228-6.272,10.4-4.906,2.468-9.865,4.874-14.556,7.724-9.583,5.8-11.22,11.822-4.916,21.147a205.443,205.443,0,0,0,16.736,21.108c4.321,4.875,7.788,7.225,11.557,7.225,3.251,0,6.726-1.749,11.169-5.134,8.743-6.655,17.343-13.507,26.016-20.253,16.067-12.514,28.614-27.724,36.4-46.724q8.81-21.483,18.151-42.73c1.562-3.555.84-5.224-2.091-7.81-8.414-7.4-17.394-14.99-22.78-25.437-0.765-1.473-1.246-3.093-2.287-5.712,7.95,5.517,14.188,11.545,21.659,14.647,11.544,4.8,20.576,12.3,29.354,20.74A38.111,38.111,0,0,0,355.5,332.606c0.087,0,.174,0,0.261,0,14.124,0,29.329-15.575,30.745-32.193-2.189,1.961-3.612,2.921-4.621,4.206-2.458,3.142-4.4,6.722-7.111,9.611-4.713,5.026-10.233,7.476-15.576,7.476-7.069,0-13.827-4.29-17.994-12.578-7.11-14.143-7.557-29.441-6.377-44.861,0.26-3.451.748-6.881,1.13-10.323l1.977-.828a17.044,17.044,0,0,0,1.684,3.074c16.721,19.517,37.685,32.01,62.819,37.177a123.494,123.494,0,0,0,24.741,2.969,64.251,64.251,0,0,0,19.664-2.888c25.035-7.967,40.07-26.561,50.387-49.539,10.049-22.4,13.773-46.082,12.2-70.5-0.975-15.07-2.155-30.182-4.393-45.106-2.017-13.5-5.858-26.713-14.354-37.894-2.652-3.489-4.854-5.27-6.99-5.27-2.168,0-4.267,1.836-6.694,5.586-6.108,9.453-14.554,15.193-24.959,18.8-8.975,3.107-10.237,5.679-8.828,15.042,1.814,12.136,4.22,24.228,5.214,36.428,1.553,19.16-1.188,37.628-13.285,53.459-3.395,4.442-7.754,8.145-11.677,12.187l-1.529-1.3c0.806-1.537,1.693-3.035,2.41-4.618,3.132-6.949,6.435-13.833,9.242-20.912,1.953-4.924.211-8.9-4.078-12.178a9.351,9.351,0,0,0-5.744-2.176,11.506,11.506,0,0,0-6.581,2.5c-3.45,2.453-6.679,5.224-10,7.852a32.166,32.166,0,0,1,5-7.742c2.67-3.439,4.589-7.12,2.163-11.453-1.622-2.909-5.66-4.649-9.846-4.649a14.647,14.647,0,0,0-3.041.316c-2.359.5-4.664,1.734-7.744,1.612,9.473-8.242,8.095-18.634-9.13-20.633,2.939-2.191,6.826-2.722,10.406-3.271a20.728,20.728,0,0,1,3.147-.2c0.6,0,1.212.014,1.819,0.029s1.208,0.027,1.811.027a22.344,22.344,0,0,0,2.693-.139c4.3-.521,5.958-2.686,4.541-6.709-3.732-10.663-16.806-21.753-28-22-1.534-.034-5.465,0-7,0h-7c3.921-1.8,7.161-4.609,11.458-6.573-11.472-15.937-24.352-30.051-42.814-37.888C325.974,72.433,316.029,71,305.858,71m4.7,284.856c-4.761,26.07-20.643,51.742-38.054,64.071-2.733,1.945-2.359,4.175-.268,5.656a12.984,12.984,0,0,0,6.827,2.2c5.616,0.1,11.231.129,16.847,0.129,6.025,0,12.051-.033,18.073-0.041,10.259-.008,15.4-6.949,10.763-16.176-3.368-6.7-4-13.321-3.343-20.2,1.244-13.222-3.71-24.37-10.845-35.639M31.566,326.218c-7.241,9.252-13.818,17.358-20.035,25.73-3.038,4.1-4.018,9.269-1.39,13.695,6.478,10.945,14.339,20.905,25.441,27.577,3.466,2.084,6.552,3.113,9.405,3.113,4.49,0,8.4-2.549,12.285-7.539,1.729-2.221,1.415-3.735.146-6.161-6.522-12.474-12.894-25.047-18.931-37.764-2.614-5.509-4.289-11.449-6.921-18.651M355.188,160.491c-19.2.183-42.7,17.791-44.985,33,3.013-2.511,6.746-5.794,9.479-8.071h0c-0.529.793,4.847,5.79,4.318,6.583,3.93,3.23,2.948,2.258,7.063,5.642h0c-1.57,3.09-5.539,7.982-7.516,11.875l1.254,1.043c13.05-13.858,27.49-25.763,45.657-32.424l-0.666-1.614c-3.708.81-7.427,1.618-10.675,2.327-3.774-4.777-7.183-9.1-10.713-13.573h0c1.609-1.135,3.7-2.608,6.784-4.785M308.1,131.682h-0.489l-0.523,0c-5.989.042-9.681,3-10.96,8.853-1.333,6.151-2.661,12.307-3.856,18.482-0.479,2.451-.609,4.969-0.9,7.455h0l1.417,0.789c8.371-14.341,14.872-30.852,35.562-31.218h0c-0.466-.266-0.931-0.516-1.4-0.751h0c-0.261-.131-0.523-0.259-0.785-0.38-5.9-2.759-11.908-3.23-17.984-3.234H308.1M448.508,120.6h0c1.351-1.546,2.4-3.846,4.1-4.513A54.1,54.1,0,0,0,478.155,96.24c1.335-1.93,4.345-2.694,6.584-4,0.049,1.795.433,3.7,0.432,5.479a7.773,7.773,0,0,1-.335,2.411c-3.865,11.909-19.086,23.614-32.031,23.682-0.659-.492-2.473-1.853-4.3-3.216h0m36.231-28.355c-2.239,1.3-5.249,2.066-6.584,4a54.1,54.1,0,0,1-25.546,19.846c-1.7.667-2.75,2.967-4.1,4.513,1.824,1.363,3.638,2.724,4.3,3.216,12.945-.068,28.166-11.773,32.031-23.682a7.773,7.773,0,0,0,.335-2.411c0-1.78-.383-3.684-0.432-5.479" transform="translate(-1.906 -71)"/>
</svg>
