<svg version="1.1" id="Layer_1" xmlns="http://www.w3.org/2000/svg" xmlns:xlink="http://www.w3.org/1999/xlink" x="0px" y="0px"
	 width="100%" viewBox="0 0 512 512" enable-background="new 0 0 512 512" xml:space="preserve">
<path fill="#000000" opacity="1.000000" stroke="none" 
	d="
M1.000000,199.000000 
	C1.000000,132.666672 1.000000,66.833336 1.000000,1.000000 
	C171.666672,1.000000 342.333344,1.000000 513.000000,1.000000 
	C513.000000,171.666672 513.000000,342.333344 513.000000,513.000000 
	C342.333344,513.000000 171.666672,513.000000 1.000000,513.000000 
	C1.000000,408.500000 1.000000,304.000000 1.000000,199.000000 
M297.919861,497.978394 
	C304.989807,497.978394 312.059784,497.978394 319.213806,497.978394 
	C319.213806,459.313568 319.213806,421.305389 319.213806,383.165527 
	C311.592316,383.165527 304.291748,383.165527 296.065002,383.020569 
	C262.334076,383.020569 228.603180,383.020569 194.885361,383.020569 
	C194.885361,421.619385 194.885361,459.631042 194.885361,497.834473 
	C229.155136,497.834473 263.073212,497.834473 297.919861,497.978394 
M475.929169,497.988281 
	C483.190704,497.988281 490.452240,497.988281 497.694244,497.988281 
	C497.694244,459.359344 497.694244,421.328674 497.694244,383.158630 
	C489.928131,383.158630 482.465881,383.158630 474.075531,383.015717 
	C440.487274,383.015717 406.899048,383.015717 373.312561,383.015717 
	C373.312561,421.630402 373.312561,459.680481 373.312561,497.841370 
	C407.417725,497.841370 441.210693,497.841370 475.929169,497.988281 
M118.065331,383.017487 
	C84.145081,383.017487 50.224834,383.017487 15.999724,383.017487 
	C15.999724,401.340546 16.001627,419.134888 15.998844,436.929260 
	C15.997635,444.661255 15.053426,446.062408 8.185198,448.624817 
	C8.185198,454.767456 8.185198,460.893280 8.185198,466.941711 
	C15.174016,469.727051 15.993212,470.954163 15.998779,478.489166 
	C16.003531,484.918610 15.999763,491.348053 15.999763,497.828125 
	C50.741749,497.828125 84.865974,497.828125 119.916992,497.986206 
	C126.851860,497.986206 133.786728,497.986206 140.698349,497.986206 
	C140.698349,459.370178 140.698349,421.315887 140.698349,383.171875 
	C133.261795,383.171875 126.125946,383.171875 118.065331,383.017487 
M146.822845,263.437042 
	C142.906448,270.156952 143.382507,275.704437 148.254578,280.121368 
	C152.809036,284.250336 158.717392,284.291473 164.719009,280.229187 
	C165.959763,279.389404 167.246185,278.603302 168.410965,277.667267 
	C175.860474,271.680817 183.114380,272.037659 191.459625,276.632599 
	C201.008453,281.890320 210.944702,287.367371 221.400223,289.830994 
	C235.759628,293.214478 244.391388,299.582123 245.182022,315.141479 
	C245.488663,321.176086 251.319839,325.065979 257.179108,324.976715 
	C262.846588,324.890411 267.614960,321.038544 268.955444,315.276428 
	C269.708588,312.039062 270.132996,308.726196 270.851868,305.479767 
	C272.318054,298.858337 276.368225,294.490234 282.944000,292.921997 
	C297.960876,289.340637 312.018982,283.618195 325.109863,275.375763 
	C330.982849,271.677917 337.162628,272.072449 343.006195,275.889374 
	C345.652740,277.618073 348.146637,279.586731 350.834137,281.244995 
	C356.106567,284.498230 362.295471,283.752258 366.372955,279.531250 
	C370.419006,275.342773 371.026855,269.617493 367.804443,264.373138 
	C366.238770,261.825043 364.348328,259.478943 362.684509,256.988251 
	C358.594574,250.865723 358.190735,244.479843 362.096130,238.215149 
	C370.091125,225.390350 375.828522,211.700897 379.212738,196.951996 
	C380.902740,189.586594 385.895081,185.293991 393.394165,183.979385 
	C396.503571,183.434265 399.659027,183.004440 402.678528,182.126572 
	C408.129791,180.541718 411.311249,176.170532 411.394348,170.690277 
	C411.480499,165.006775 408.226807,160.467575 402.579102,158.837631 
	C399.715057,158.011047 396.737030,157.536438 393.784332,157.068115 
	C386.050659,155.841492 380.939087,151.515625 379.186249,143.934250 
	C375.817261,129.362396 370.227509,115.788994 362.274384,103.126427 
	C358.129822,96.527664 358.539032,89.890915 363.021454,83.499359 
	C364.836151,80.911743 366.791687,78.391212 368.310913,75.634972 
	C371.018524,70.722672 370.125610,65.280975 366.300537,61.384705 
	C362.467194,57.479988 356.441101,56.507385 351.601715,59.287495 
	C348.869873,60.856888 346.527008,63.135601 343.736572,64.561943 
	C340.836578,66.044266 337.687592,67.413307 334.506287,67.890694 
	C328.604767,68.776291 324.014404,65.283943 319.556946,62.072136 
	C316.392853,59.792229 316.616821,56.433094 317.174713,52.974163 
	C317.279266,52.325954 316.039215,51.145924 315.169891,50.713905 
	C312.425751,49.350239 309.559662,48.232906 306.746948,47.006130 
	C302.969971,45.358810 299.221680,43.497162 296.392517,48.588573 
	C295.998444,49.297775 294.720245,49.668362 293.778809,49.896919 
	C285.222198,51.974293 273.181244,44.737755 270.982056,36.108875 
	C270.120972,32.730362 269.752289,29.229107 268.974640,25.825968 
	C267.606110,19.837221 262.654907,15.923378 256.791016,16.020235 
	C251.116165,16.113972 246.366714,19.969755 245.038361,25.738194 
	C244.292389,28.977566 243.865829,32.289917 243.139908,35.534607 
	C241.659546,42.151543 237.593765,46.522060 231.022781,48.079178 
	C215.995850,51.640102 201.955170,57.398388 188.860428,65.631531 
	C182.986038,69.324966 176.798767,68.910255 170.962067,65.086464 
	C168.178619,63.262936 165.573700,61.152622 162.720993,59.452259 
	C157.881104,56.567417 151.894302,57.349873 147.963318,61.134239 
	C143.723831,65.215599 142.887695,70.932014 145.975998,76.194756 
	C147.488007,78.771362 149.337677,81.150589 151.046982,83.610489 
	C155.504883,90.025948 155.790482,96.648933 151.652527,103.243729 
	C143.707382,115.906105 138.116379,129.480988 134.785797,144.064926 
	C133.151093,151.223038 128.298477,155.503494 121.072472,156.949829 
	C118.626907,157.439316 116.137398,157.705978 113.685226,158.166321 
	C106.868088,159.446121 102.643150,164.085648 102.551933,170.319382 
	C102.457916,176.744553 106.774071,181.568481 113.828438,182.861450 
	C116.282753,183.311279 118.774582,183.568115 121.216408,184.072281 
	C128.215561,185.517395 133.071747,189.633377 134.673294,196.593140 
	C138.104065,211.502090 143.839935,225.373718 151.962234,238.319580 
	C155.318314,243.668732 155.480316,249.384506 152.510635,254.949646 
	C151.031570,257.721405 148.990189,260.193085 146.822845,263.437042 
z"/>
<path fill="#60A0F6" opacity="1.000000" stroke="none" 
	d="
M147.013016,263.118774 
	C148.990189,260.193085 151.031570,257.721405 152.510635,254.949646 
	C155.480316,249.384506 155.318314,243.668732 151.962234,238.319580 
	C143.839935,225.373718 138.104065,211.502090 134.673294,196.593140 
	C133.071747,189.633377 128.215561,185.517395 121.216408,184.072281 
	C118.774582,183.568115 116.282753,183.311279 113.828438,182.861450 
	C106.774071,181.568481 102.457916,176.744553 102.551933,170.319382 
	C102.643150,164.085648 106.868088,159.446121 113.685226,158.166321 
	C116.137398,157.705978 118.626907,157.439316 121.072472,156.949829 
	C128.298477,155.503494 133.151093,151.223038 134.785797,144.064926 
	C138.116379,129.480988 143.707382,115.906105 151.652527,103.243729 
	C155.790482,96.648933 155.504883,90.025948 151.046982,83.610489 
	C149.337677,81.150589 147.488007,78.771362 145.975998,76.194756 
	C142.887695,70.932014 143.723831,65.215599 147.963318,61.134239 
	C151.894302,57.349873 157.881104,56.567417 162.720993,59.452259 
	C165.573700,61.152622 168.178619,63.262936 170.962067,65.086464 
	C176.798767,68.910255 182.986038,69.324966 188.860428,65.631531 
	C201.955170,57.398388 215.995850,51.640102 231.022781,48.079178 
	C237.593765,46.522060 241.659546,42.151543 243.139908,35.534607 
	C243.865829,32.289917 244.292389,28.977566 245.038361,25.738194 
	C246.366714,19.969755 251.116165,16.113972 256.791016,16.020235 
	C262.654907,15.923378 267.606110,19.837221 268.974640,25.825968 
	C269.752289,29.229107 270.120972,32.730362 270.982056,36.108875 
	C273.181244,44.737755 285.222198,51.974293 293.778809,49.896919 
	C294.720245,49.668362 295.998444,49.297775 296.392517,48.588573 
	C299.221680,43.497162 302.969971,45.358810 306.746948,47.006130 
	C309.559662,48.232906 312.425751,49.350239 315.169891,50.713905 
	C316.039215,51.145924 317.279266,52.325954 317.174713,52.974163 
	C316.616821,56.433094 316.392853,59.792229 319.556946,62.072136 
	C324.014404,65.283943 328.604767,68.776291 334.506287,67.890694 
	C337.687592,67.413307 340.836578,66.044266 343.736572,64.561943 
	C346.527008,63.135601 348.869873,60.856888 351.601715,59.287495 
	C356.441101,56.507385 362.467194,57.479988 366.300537,61.384705 
	C370.125610,65.280975 371.018524,70.722672 368.310913,75.634972 
	C366.791687,78.391212 364.836151,80.911743 363.021454,83.499359 
	C358.539032,89.890915 358.129822,96.527664 362.274384,103.126427 
	C370.227509,115.788994 375.817261,129.362396 379.186249,143.934250 
	C380.939087,151.515625 386.050659,155.841492 393.784332,157.068115 
	C396.737030,157.536438 399.715057,158.011047 402.579102,158.837631 
	C408.226807,160.467575 411.480499,165.006775 411.394348,170.690277 
	C411.311249,176.170532 408.129791,180.541718 402.678528,182.126572 
	C399.659027,183.004440 396.503571,183.434265 393.394165,183.979385 
	C385.895081,185.293991 380.902740,189.586594 379.212738,196.951996 
	C375.828522,211.700897 370.091125,225.390350 362.096130,238.215149 
	C358.190735,244.479843 358.594574,250.865723 362.684509,256.988251 
	C364.348328,259.478943 366.238770,261.825043 367.804443,264.373138 
	C371.026855,269.617493 370.419006,275.342773 366.372955,279.531250 
	C362.295471,283.752258 356.106567,284.498230 350.834137,281.244995 
	C348.146637,279.586731 345.652740,277.618073 343.006195,275.889374 
	C337.162628,272.072449 330.982849,271.677917 325.109863,275.375763 
	C312.018982,283.618195 297.960876,289.340637 282.944000,292.921997 
	C276.368225,294.490234 272.318054,298.858337 270.851868,305.479767 
	C270.132996,308.726196 269.708588,312.039062 268.955444,315.276428 
	C267.614960,321.038544 262.846588,324.890411 257.179108,324.976715 
	C251.319839,325.065979 245.488663,321.176086 245.182022,315.141479 
	C244.391388,299.582123 235.759628,293.214478 221.400223,289.830994 
	C210.944702,287.367371 201.008453,281.890320 191.459625,276.632599 
	C183.114380,272.037659 175.860474,271.680817 168.410965,277.667267 
	C167.246185,278.603302 165.959763,279.389404 164.719009,280.229187 
	C158.717392,284.291473 152.809036,284.250336 148.254578,280.121368 
	C143.382507,275.704437 142.906448,270.156952 147.013016,263.118774 
M148.578995,188.851105 
	C156.890717,239.224503 199.793198,277.499939 251.002640,280.228302 
	C319.109528,283.856934 373.959747,225.655121 366.187927,158.004745 
	C357.426880,81.743500 275.227600,37.719452 206.944901,72.587944 
	C168.549133,92.194702 140.410950,136.313309 148.578995,188.851105 
z"/>
<path fill="#ECF4FF" opacity="1.000000" stroke="none" 
	d="
M118.990204,497.828125 
	C84.865974,497.828125 50.741749,497.828125 15.999763,497.828125 
	C15.999763,491.348053 16.003531,484.918610 15.998779,478.489166 
	C15.993212,470.954163 15.174016,469.727051 8.185198,466.941711 
	C8.185198,460.893280 8.185198,454.767456 8.185198,448.624817 
	C15.053426,446.062408 15.997635,444.661255 15.998844,436.929260 
	C16.001627,419.134888 15.999724,401.340546 15.999724,383.017487 
	C50.224834,383.017487 84.145081,383.017487 118.529510,383.552429 
	C118.994568,398.882904 119.036751,413.678680 118.944603,428.473663 
	C118.932961,430.343597 118.216194,432.209106 117.421196,434.002777 
	C115.241615,433.618927 113.467697,433.044128 111.692192,433.039185 
	C89.566330,432.977661 67.440208,432.984222 45.314198,433.008881 
	C39.504120,433.015350 36.070415,435.807281 36.017536,440.406189 
	C35.964401,445.027130 39.423546,447.980469 45.134487,447.988403 
	C67.426849,448.019379 89.719368,448.027710 112.011528,447.954071 
	C113.949303,447.947632 115.884895,447.280090 118.137856,447.206543 
	C118.244835,453.687836 118.035469,459.882263 117.421188,466.002747 
	C115.241623,465.618896 113.467697,465.044098 111.692192,465.039154 
	C89.566330,464.977661 67.440208,464.984192 45.314198,465.008850 
	C39.504120,465.015320 36.070419,467.807281 36.017536,472.406189 
	C35.964401,477.027130 39.423542,479.980438 45.134487,479.988373 
	C67.426849,480.019348 89.719368,480.027679 112.011528,479.954041 
	C113.949303,479.947632 115.884903,479.280121 118.137817,479.206451 
	C118.632812,485.604858 118.811508,491.716492 118.990204,497.828125 
M89.531860,404.087036 
	C87.201820,403.057526 84.891281,401.192810 82.538475,401.137878 
	C69.908363,400.842804 57.267513,400.955444 44.630825,401.018585 
	C39.331116,401.045074 35.960472,404.114807 36.016033,408.581421 
	C36.071518,413.041534 39.424725,415.960938 44.801842,415.984589 
	C57.272331,416.039490 69.743622,416.061920 82.213799,415.978912 
	C89.375572,415.931244 92.275940,411.610687 89.531860,404.087036 
z"/>
<path fill="#FFE07D" opacity="1.000000" stroke="none" 
	d="
M475.003632,497.841370 
	C441.210693,497.841370 407.417725,497.841370 373.312561,497.841370 
	C373.312561,459.680481 373.312561,421.630402 373.312561,383.015717 
	C406.899048,383.015717 440.487274,383.015717 474.541809,383.545654 
	C474.990356,400.776154 474.972595,417.476746 474.545837,434.076843 
	C472.194580,433.650452 470.253204,433.047150 468.309967,433.041168 
	C446.483734,432.973999 424.657257,432.989716 402.830841,433.004303 
	C396.565125,433.008484 393.061249,435.687622 393.013855,440.417511 
	C392.966278,445.163055 396.515656,447.989014 402.674011,447.994171 
	C424.500427,448.012421 446.326996,448.036133 468.153046,447.949341 
	C470.421600,447.940338 472.687256,447.210052 474.971802,447.294250 
	C474.977844,453.908447 474.966339,460.042908 474.545837,466.076843 
	C472.194580,465.650452 470.253204,465.047180 468.309967,465.041199 
	C446.483734,464.974030 424.657257,464.989685 402.830841,465.004272 
	C396.565125,465.008484 393.061279,467.687622 393.013855,472.417511 
	C392.966278,477.163055 396.515656,479.989014 402.674011,479.994171 
	C424.500427,480.012421 446.326996,480.036102 468.153046,479.949402 
	C470.421600,479.940399 472.687256,479.210144 474.971802,479.294006 
	C474.994110,485.796112 474.998871,491.818756 475.003632,497.841370 
M437.254089,400.997314 
	C425.297852,400.997833 413.341278,400.944763 401.385590,401.024353 
	C396.373718,401.057709 393.120026,404.032715 393.017273,408.319519 
	C392.914062,412.625244 396.159332,415.923798 401.032715,415.963959 
	C413.984406,416.070740 426.937531,416.008575 439.890106,415.995758 
	C444.090118,415.991577 446.953278,413.951813 447.800873,409.862701 
	C448.558777,406.206207 446.988861,403.252960 443.503113,401.808044 
	C441.893036,401.140625 439.963593,401.243683 437.254089,400.997314 
z"/>
<path fill="#61A2F9" opacity="1.000000" stroke="none" 
	d="
M296.991272,497.834473 
	C263.073212,497.834473 229.155136,497.834473 194.885361,497.834473 
	C194.885361,459.631042 194.885361,421.619385 194.885361,383.020569 
	C228.603180,383.020569 262.334076,383.020569 296.530945,383.550934 
	C296.997925,398.975983 297.028076,413.870789 296.960907,428.765167 
	C296.953064,430.505188 296.408234,432.242767 295.694427,433.898987 
	C294.489716,433.568054 293.703369,433.104065 292.916046,433.102386 
	C269.145325,433.052277 245.374084,432.969727 221.604126,433.105652 
	C217.145081,433.131104 214.302902,436.877502 214.662262,441.162842 
	C215.011932,445.332794 218.018234,447.962250 222.942215,447.974335 
	C245.716400,448.030121 268.490875,448.017059 291.265015,447.953918 
	C292.877533,447.949432 294.488373,447.342377 296.368805,447.329926 
	C296.462524,453.756744 296.287445,459.869110 295.694458,465.899017 
	C294.489716,465.568054 293.703369,465.104034 292.916046,465.102356 
	C269.145325,465.052246 245.374084,464.969696 221.604126,465.105621 
	C217.145081,465.131073 214.302902,468.877502 214.662262,473.162842 
	C215.011963,477.332794 218.018234,479.962250 222.942215,479.974335 
	C245.716400,480.030121 268.490875,480.017090 291.265015,479.953918 
	C292.877533,479.949463 294.488373,479.342346 296.368805,479.329926 
	C296.755493,485.707733 296.873383,491.771118 296.991272,497.834473 
M268.756653,405.280731 
	C266.139832,403.853455 263.562195,401.284668 260.899475,401.193176 
	C248.252487,400.758667 235.581970,400.945984 222.920547,401.025146 
	C217.814835,401.057068 214.683090,403.969574 214.614822,408.372040 
	C214.543396,412.976379 217.754791,415.949188 223.170502,415.979156 
	C235.665436,416.048279 248.161346,416.054291 260.656219,415.979675 
	C267.180176,415.940735 269.698517,412.844238 268.756653,405.280731 
z"/>
<path fill="#5490F8" opacity="1.000000" stroke="none" 
	d="
M297.455566,497.906433 
	C296.873383,491.771118 296.755493,485.707733 296.572266,479.033752 
	C300.475006,473.734283 300.384918,470.894379 296.112366,465.981476 
	C296.287445,459.869110 296.462524,453.756744 296.572266,447.033752 
	C300.475006,441.734283 300.384918,438.894379 296.112366,433.981476 
	C296.408234,432.242767 296.953064,430.505188 296.960907,428.765167 
	C297.028076,413.870789 296.997925,398.975983 296.994019,383.623413 
	C304.291748,383.165527 311.592316,383.165527 319.213806,383.165527 
	C319.213806,421.305389 319.213806,459.313568 319.213806,497.978394 
	C312.059784,497.978394 304.989807,497.978394 297.455566,497.906433 
z"/>
<path fill="#FFD064" opacity="1.000000" stroke="none" 
	d="
M475.466400,497.914825 
	C474.998871,491.818756 474.994110,485.796112 475.133240,478.985352 
	C479.076233,473.307770 479.024506,471.378296 474.954834,466.177338 
	C474.966339,460.042908 474.977844,453.908447 475.133240,446.985596 
	C479.076233,441.307770 479.024506,439.378296 474.954865,434.177338 
	C474.972595,417.476746 474.990356,400.776154 475.005859,383.617096 
	C482.465881,383.158630 489.928131,383.158630 497.694244,383.158630 
	C497.694244,421.328674 497.694244,459.359344 497.694244,497.988281 
	C490.452240,497.988281 483.190704,497.988281 475.466400,497.914825 
z"/>
<path fill="#DDEAFB" opacity="1.000000" stroke="none" 
	d="
M119.453598,497.907166 
	C118.811508,491.716492 118.632812,485.604858 118.309402,478.890015 
	C122.137314,473.405823 122.078438,471.282623 117.826111,466.076660 
	C118.035469,459.882263 118.244835,453.687836 118.309448,446.890106 
	C122.137314,441.405823 122.078438,439.282623 117.826111,434.076660 
	C118.216194,432.209106 118.932961,430.343597 118.944603,428.473663 
	C119.036751,413.678680 118.994568,398.882904 118.991898,383.629608 
	C126.125946,383.171875 133.261795,383.171875 140.698349,383.171875 
	C140.698349,421.315887 140.698349,459.370178 140.698349,497.986206 
	C133.786728,497.986206 126.851860,497.986206 119.453598,497.907166 
z"/>
<path fill="#030304" opacity="1.000000" stroke="none" 
	d="
M148.463135,188.429092 
	C140.410950,136.313309 168.549133,92.194702 206.944901,72.587944 
	C275.227600,37.719452 357.426880,81.743500 366.187927,158.004745 
	C373.959747,225.655121 319.109528,283.856934 251.002640,280.228302 
	C199.793198,277.499939 156.890717,239.224503 148.463135,188.429092 
M304.920074,88.506424 
	C286.311523,77.613609 266.169006,73.528442 244.929001,76.298500 
	C192.674820,83.113289 156.682373,129.921494 162.858078,182.484680 
	C170.285629,245.702881 239.784027,284.283600 297.037476,256.520813 
	C330.431213,240.327881 349.477814,213.090393 351.608429,176.037857 
	C353.775848,138.345779 337.411469,109.218254 304.920074,88.506424 
z"/>
<path fill="#010101" opacity="1.000000" stroke="none" 
	d="
M117.421188,434.002777 
	C122.078438,439.282623 122.137314,441.405823 117.993103,446.603210 
	C115.884895,447.280090 113.949303,447.947632 112.011528,447.954071 
	C89.719368,448.027710 67.426849,448.019379 45.134487,447.988403 
	C39.423546,447.980469 35.964401,445.027130 36.017536,440.406189 
	C36.070415,435.807281 39.504120,433.015350 45.314198,433.008881 
	C67.440208,432.984222 89.566330,432.977661 111.692192,433.039185 
	C113.467697,433.044128 115.241615,433.618927 117.421188,434.002777 
z"/>
<path fill="#010101" opacity="1.000000" stroke="none" 
	d="
M117.421196,466.002747 
	C122.078438,471.282623 122.137314,473.405823 117.993103,478.603210 
	C115.884903,479.280121 113.949303,479.947632 112.011528,479.954041 
	C89.719368,480.027679 67.426849,480.019348 45.134487,479.988373 
	C39.423542,479.980438 35.964401,477.027130 36.017536,472.406189 
	C36.070419,467.807281 39.504120,465.015320 45.314198,465.008850 
	C67.440208,464.984192 89.566330,464.977661 111.692192,465.039154 
	C113.467697,465.044098 115.241623,465.618896 117.421196,466.002747 
z"/>
<path fill="#020202" opacity="1.000000" stroke="none" 
	d="
M89.741127,404.422668 
	C92.275940,411.610687 89.375572,415.931244 82.213799,415.978912 
	C69.743622,416.061920 57.272331,416.039490 44.801842,415.984589 
	C39.424725,415.960938 36.071518,413.041534 36.016033,408.581421 
	C35.960472,404.114807 39.331116,401.045074 44.630825,401.018585 
	C57.267513,400.955444 69.908363,400.842804 82.538475,401.137878 
	C84.891281,401.192810 87.201820,403.057526 89.741127,404.422668 
z"/>
<path fill="#010101" opacity="1.000000" stroke="none" 
	d="
M474.545837,466.076843 
	C479.024506,471.378296 479.076233,473.307770 475.115692,478.505859 
	C472.687256,479.210144 470.421600,479.940399 468.153046,479.949402 
	C446.326996,480.036102 424.500427,480.012421 402.674011,479.994171 
	C396.515656,479.989014 392.966278,477.163055 393.013855,472.417511 
	C393.061279,467.687622 396.565125,465.008484 402.830841,465.004272 
	C424.657257,464.989685 446.483734,464.974030 468.309967,465.041199 
	C470.253204,465.047180 472.194580,465.650452 474.545837,466.076843 
z"/>
<path fill="#010101" opacity="1.000000" stroke="none" 
	d="
M474.545837,434.076843 
	C479.024506,439.378296 479.076233,441.307770 475.115692,446.505798 
	C472.687256,447.210052 470.421600,447.940338 468.153046,447.949341 
	C446.326996,448.036133 424.500427,448.012421 402.674011,447.994171 
	C396.515656,447.989014 392.966278,445.163055 393.013855,440.417511 
	C393.061249,435.687622 396.565125,433.008484 402.830841,433.004303 
	C424.657257,432.989716 446.483734,432.973999 468.309967,433.041168 
	C470.253204,433.047150 472.194580,433.650452 474.545837,434.076843 
z"/>
<path fill="#020201" opacity="1.000000" stroke="none" 
	d="
M437.716522,400.997375 
	C439.963593,401.243683 441.893036,401.140625 443.503113,401.808044 
	C446.988861,403.252960 448.558777,406.206207 447.800873,409.862701 
	C446.953278,413.951813 444.090118,415.991577 439.890106,415.995758 
	C426.937531,416.008575 413.984406,416.070740 401.032715,415.963959 
	C396.159332,415.923798 392.914062,412.625244 393.017273,408.319519 
	C393.120026,404.032715 396.373718,401.057709 401.385590,401.024353 
	C413.341278,400.944763 425.297852,400.997833 437.716522,400.997375 
z"/>
<path fill="#000101" opacity="1.000000" stroke="none" 
	d="
M295.694458,433.898987 
	C300.384918,438.894379 300.475006,441.734283 296.303467,446.719299 
	C294.488373,447.342377 292.877533,447.949432 291.265015,447.953918 
	C268.490875,448.017059 245.716400,448.030121 222.942215,447.974335 
	C218.018234,447.962250 215.011932,445.332794 214.662262,441.162842 
	C214.302902,436.877502 217.145081,433.131104 221.604126,433.105652 
	C245.374084,432.969727 269.145325,433.052277 292.916046,433.102386 
	C293.703369,433.104065 294.489716,433.568054 295.694458,433.898987 
z"/>
<path fill="#000101" opacity="1.000000" stroke="none" 
	d="
M295.694458,465.899017 
	C300.384918,470.894379 300.475006,473.734283 296.303467,478.719299 
	C294.488373,479.342346 292.877533,479.949463 291.265015,479.953918 
	C268.490875,480.017090 245.716400,480.030121 222.942215,479.974335 
	C218.018234,479.962250 215.011963,477.332794 214.662262,473.162842 
	C214.302902,468.877502 217.145081,465.131073 221.604126,465.105621 
	C245.374084,464.969696 269.145325,465.052246 292.916046,465.102356 
	C293.703369,465.104034 294.489716,465.568054 295.694458,465.899017 
z"/>
<path fill="#010102" opacity="1.000000" stroke="none" 
	d="
M268.883118,405.675110 
	C269.698517,412.844238 267.180176,415.940735 260.656219,415.979675 
	C248.161346,416.054291 235.665436,416.048279 223.170502,415.979156 
	C217.754791,415.949188 214.543396,412.976379 214.614822,408.372040 
	C214.683090,403.969574 217.814835,401.057068 222.920547,401.025146 
	C235.581970,400.945984 248.252487,400.758667 260.899475,401.193176 
	C263.562195,401.284668 266.139832,403.853455 268.883118,405.675110 
z"/>
<path fill="#EBF3FD" opacity="1.000000" stroke="none" 
	d="
M305.229279,88.704163 
	C337.411469,109.218254 353.775848,138.345779 351.608429,176.037857 
	C349.477814,213.090393 330.431213,240.327881 297.037476,256.520813 
	C239.784027,284.283600 170.285629,245.702881 162.858078,182.484680 
	C156.682373,129.921494 192.674820,83.113289 244.929001,76.298500 
	C266.169006,73.528442 286.311523,77.613609 305.229279,88.704163 
M230.061234,195.214203 
	C230.225388,187.069885 230.445984,178.926208 230.536743,170.781082 
	C230.616531,163.621918 230.654633,156.459152 230.516266,149.301727 
	C230.408813,143.742340 227.552109,140.715027 222.892700,140.782013 
	C218.397415,140.846619 215.784897,143.743835 215.535767,149.051270 
	C215.442169,151.045166 215.512421,153.046844 215.511627,155.044983 
	C215.510101,158.883835 215.511185,162.722702 215.511185,166.561554 
	C209.707550,159.672577 204.870132,152.761765 200.292786,145.682785 
	C197.847961,141.901810 194.809601,139.687546 190.331543,141.170242 
	C185.991821,142.607193 185.209290,146.347473 185.226669,150.462585 
	C185.282928,163.783386 185.222519,177.104660 185.258621,190.425613 
	C185.275909,196.805969 187.856140,200.132767 192.687225,200.217560 
	C197.761185,200.306610 200.239212,197.062485 200.271515,190.220551 
	C200.296295,184.976044 200.276443,179.731308 200.276443,174.486679 
	C206.190094,181.385590 210.978745,188.531128 215.866089,195.608521 
	C220.210526,201.899719 225.192032,202.000656 230.061234,195.214203 
M296.623138,140.744415 
	C286.330292,140.759628 284.818756,142.262848 284.817505,152.506943 
	C284.815887,165.642761 284.768951,178.778854 284.844971,191.914246 
	C284.875458,197.183640 287.571167,200.122986 292.070923,200.207275 
	C296.528381,200.290787 299.521729,197.296844 299.787384,192.253571 
	C299.942169,189.315674 299.815552,186.362976 299.815552,182.997330 
	C303.060760,182.997330 305.856293,183.117401 308.638550,182.976212 
	C319.704742,182.414581 328.544647,173.160294 328.701996,162.066605 
	C328.861572,150.816040 319.929657,141.337616 308.563385,140.817123 
	C304.912506,140.649963 301.248871,140.760788 296.623138,140.744415 
M243.174667,196.001282 
	C245.771729,197.426483 248.244659,199.677353 250.993835,200.090668 
	C255.543457,200.774643 260.273376,200.365631 264.923096,200.248093 
	C269.701019,200.127304 272.781464,197.333115 272.982849,193.200226 
	C273.193176,188.884125 270.084412,185.641876 265.164520,185.277328 
	C262.741486,185.097809 260.294159,185.246185 257.543243,185.246185 
	C257.543243,183.004272 257.545105,181.372894 257.542877,179.741516 
	C257.528564,169.273376 257.653625,158.802338 257.436157,148.338409 
	C257.335327,143.485245 254.303497,140.751328 249.959335,140.768066 
	C245.791840,140.784134 242.645020,143.385818 242.623260,147.915024 
	C242.547455,163.684982 242.807526,179.456528 243.174667,196.001282 
z"/>
<path fill="#060606" opacity="1.000000" stroke="none" 
	d="
M229.943604,195.605988 
	C225.192032,202.000656 220.210526,201.899719 215.866089,195.608521 
	C210.978745,188.531128 206.190094,181.385590 200.276443,174.486679 
	C200.276443,179.731308 200.296295,184.976044 200.271515,190.220551 
	C200.239212,197.062485 197.761185,200.306610 192.687225,200.217560 
	C187.856140,200.132767 185.275909,196.805969 185.258621,190.425613 
	C185.222519,177.104660 185.282928,163.783386 185.226669,150.462585 
	C185.209290,146.347473 185.991821,142.607193 190.331543,141.170242 
	C194.809601,139.687546 197.847961,141.901810 200.292786,145.682785 
	C204.870132,152.761765 209.707550,159.672577 215.511185,166.561554 
	C215.511185,162.722702 215.510101,158.883835 215.511627,155.044983 
	C215.512421,153.046844 215.442169,151.045166 215.535767,149.051270 
	C215.784897,143.743835 218.397415,140.846619 222.892700,140.782013 
	C227.552109,140.715027 230.408813,143.742340 230.516266,149.301727 
	C230.654633,156.459152 230.616531,163.621918 230.536743,170.781082 
	C230.445984,178.926208 230.225388,187.069885 229.943604,195.605988 
z"/>
<path fill="#030303" opacity="1.000000" stroke="none" 
	d="
M297.107117,140.744415 
	C301.248871,140.760788 304.912506,140.649963 308.563385,140.817123 
	C319.929657,141.337616 328.861572,150.816040 328.701996,162.066605 
	C328.544647,173.160294 319.704742,182.414581 308.638550,182.976212 
	C305.856293,183.117401 303.060760,182.997330 299.815552,182.997330 
	C299.815552,186.362976 299.942169,189.315674 299.787384,192.253571 
	C299.521729,197.296844 296.528381,200.290787 292.070923,200.207275 
	C287.571167,200.122986 284.875458,197.183640 284.844971,191.914246 
	C284.768951,178.778854 284.815887,165.642761 284.817505,152.506943 
	C284.818756,142.262848 286.330292,140.759628 297.107117,140.744415 
M299.818329,162.459045 
	C299.818329,164.223389 299.818329,165.987732 299.818329,168.080124 
	C304.611450,167.554108 309.642365,169.847549 312.530365,165.011932 
	C313.496185,163.394806 313.482452,160.168167 312.479309,158.591843 
	C309.483826,153.884903 304.521851,156.250458 299.818329,155.752594 
	C299.818329,157.924164 299.818329,159.705490 299.818329,162.459045 
z"/>
<path fill="#0B0B0B" opacity="1.000000" stroke="none" 
	d="
M243.057281,195.614380 
	C242.807526,179.456528 242.547455,163.684982 242.623260,147.915024 
	C242.645020,143.385818 245.791840,140.784134 249.959335,140.768066 
	C254.303497,140.751328 257.335327,143.485245 257.436157,148.338409 
	C257.653625,158.802338 257.528564,169.273376 257.542877,179.741516 
	C257.545105,181.372894 257.543243,183.004272 257.543243,185.246185 
	C260.294159,185.246185 262.741486,185.097809 265.164520,185.277328 
	C270.084412,185.641876 273.193176,188.884125 272.982849,193.200226 
	C272.781464,197.333115 269.701019,200.127304 264.923096,200.248093 
	C260.273376,200.365631 255.543457,200.774643 250.993835,200.090668 
	C248.244659,199.677353 245.771729,197.426483 243.057281,195.614380 
z"/>
<path fill="#E7EFFA" opacity="1.000000" stroke="none" 
	d="
M299.818329,161.972931 
	C299.818329,159.705490 299.818329,157.924164 299.818329,155.752594 
	C304.521851,156.250458 309.483826,153.884903 312.479309,158.591843 
	C313.482452,160.168167 313.496185,163.394806 312.530365,165.011932 
	C309.642365,169.847549 304.611450,167.554108 299.818329,168.080124 
	C299.818329,165.987732 299.818329,164.223389 299.818329,161.972931 
z"/>
</svg>